<svg version="1.1" id="Layer_1" xmlns="http://www.w3.org/2000/svg" x="0" y="0" viewBox="0 0 556 587" xml:space="preserve">
  <style>
    .st1{fill:#97a6b7}.st2{fill:#d8dee8}.st12,.st8{fill:#fff}.st12{opacity:.68;enable-background:new}.st14,.st15{opacity:.5}.st15{fill:#fff;enable-background:new}
  </style>
  <g id="base" class="rellax" data-rellax-speed=".4">
    <linearGradient id="SVGID_1_" gradientUnits="userSpaceOnUse" x1="-327.792" y1="210.462" x2="-249.453" y2=".187" gradientTransform="rotate(133.797 -92.498 370.265)">
      <stop offset="0" stop-color="#aa80f9" stop-opacity=".7"/>
      <stop offset=".996" stop-color="#6165d7" stop-opacity=".7"/>
    </linearGradient>
    <path d="M314.5 419.7c-40.7-12.5-48.9-24.6-105.2-43-63.4-20.7-101.1-32.3-131-7-20.4 17.3-34.4 49.5-31.8 73.8 4.4 40.8 55.3 56.6 72.7 62.1 29.1 9.1 47 4.3 61.8 23.2 12.5 16 6.4 28 15.9 39.8 27 33.4 114.5-15.3 128.7-23.2 55.5-30.9 96.7-75.7 124.7-114-60.8 6-105.5-2.5-135.8-11.7z" fill="url(#SVGID_1_)"/>
  </g>
  <g id="gearBig" class="rellax" data-rellax-speed="-.3">
    <path class="st1" d="m208.5 138.3-14.3 1.1 4.7 7 9.6-8.1zM232.3 236.6l-13.9 2-1.7-11.4 15.6 9.4zM285.5 287.8l-12.5 2.3-1-9.2 13.5 6.9zM347.9 309.9l11.2-2-9.6-14.3-1.6 16.3zM408.6 297.9l13.1-2.7-10.1-12.2-3 14.9zM509.1 170.9l-12.5 1.8 1-10.2 11.5 8.4zM482.3 245.7l-12.2 2-1-8.1 13.2 6.1z"/>
    <path class="st1" d="M201.4 146.7v12.6c0 4.7 3.7 8.6 8.3 8.7l17.8.2c1.5 11.2 4.6 22 8.9 32.1l-15.9 9c-4 2.3-5.4 7.5-3.1 11.7l6.2 11.2c2.3 4.2 7.5 5.8 11.5 3.6l16.5-9.1c6.7 9 14.6 17.1 23.4 24.1l-9.9 16.8c-2.4 4.1-1 9.5 3.2 12.1l11.1 7c4.2 2.7 9.6 1.5 12-2.6l10.2-17.1c10.2 4.7 21.2 8.1 32.7 10.1v20.8c0 5 4.1 9.2 9.1 9.5l13.5.8c5.1.3 9.3-3.5 9.3-8.5v-21c11.9-.8 23.3-3.3 34.2-7.1l11 18.8c2.6 4.6 8.5 6.4 13.1 4.1l12.3-6.1c4.7-2.3 6.3-7.9 3.6-12.5L429.1 257c9.9-6.6 18.8-14.6 26.5-23.7l19.2 11.1c4.8 2.8 10.9 1.5 13.7-3l7.4-11.8c2.8-4.4 1.1-10.3-3.7-13l-19-10.8c5.1-10.8 8.7-22.4 10.5-34.6l21.5.3c5.6.1 10.2-4.1 10.2-9.4v-14c0-5.3-4.6-9.5-10.2-9.5h-20.9c-1.4-12.5-4.7-24.5-9.5-35.6l17.5-9.7c4.8-2.7 6.5-8.5 3.7-13l-7.4-11.9c-2.8-4.4-8.9-5.8-13.7-3.1L458 74.8c-7.7-9.8-16.9-18.4-27.1-25.6l9.3-15.7c2.7-4.5 1.1-10.2-3.6-12.6l-12.3-6.3c-4.6-2.4-10.5-.6-13.1 3.9l-9 15.3c-11.4-4.4-23.5-7.2-36.2-8.3v-17c0-5-4.1-8.9-9.3-8.6l-13.5.6c-5 .2-9.1 4.4-9.1 9.4v16.8c-12.2 1.9-23.8 5.5-34.5 10.5l-8.3-14.1c-2.4-4.1-7.8-5.4-12-2.8l-11.1 6.9c-4.1 2.6-5.6 8-3.2 12.1l8.3 14.3c-9.1 7.3-17.1 15.8-23.9 25.3L235 70.7c-4-2.3-9.2-.8-11.5 3.4l-6.2 11.1c-2.3 4.1-.9 9.4 3.1 11.7l14.7 8.5c-4.1 10.3-6.8 21.3-8 32.8h-17.3c-4.7-.1-8.4 3.7-8.4 8.5zm60.1 4.7c0-48 38.9-87.8 88.5-89 51.3-1.3 94.2 39.1 94.2 90.1 0 51.1-42.9 90.8-94.2 89-49.6-1.8-88.5-42.1-88.5-90.1z"/>
    <path class="st1" d="m407.4 14 12.3-.4 4.3 11.1L407.4 14zM285 19.1l-14.2.1v10.5L285 19.1zM230.7 69.7l-14.2.6 3.6 7.9 10.6-8.5zM482 64.1l-13.6.4 5.4 9.9 8.2-10.3z"/>
    <path class="st2" d="M187.3 147.9v12.7c0 4.8 3.7 8.7 8.4 8.7l17.9.2c1.5 11.3 4.6 22.2 8.9 32.4l-16.1 9.1c-4 2.3-5.4 7.6-3.1 11.8l6.2 11.2c2.3 4.3 7.5 5.9 11.6 3.6l16.6-9.2c6.8 9 14.7 17.2 23.6 24.3l-10 17c-2.4 4.1-1 9.6 3.2 12.2l11.2 7.1c4.2 2.7 9.6 1.5 12.1-2.6l10.3-17.3c10.3 4.7 21.3 8.2 32.9 10.2v20.9c0 5 4.1 9.3 9.2 9.6l13.6.8c5.1.3 9.3-3.5 9.3-8.6v-21.2c12-.9 23.5-3.3 34.5-7.1l11.1 19c2.7 4.6 8.6 6.4 13.2 4.1l12.4-6.2c4.7-2.3 6.3-8 3.6-12.6l-11.2-18.9c10-6.7 19-14.7 26.7-23.9l19.4 11.2c4.8 2.8 11 1.5 13.8-3l7.5-11.9c2.8-4.5 1.1-10.4-3.7-13.1l-19.1-10.9c5.1-10.9 8.8-22.6 10.6-34.9l21.7.3c5.7.1 10.3-4.2 10.3-9.5v-14.1c0-5.3-4.6-9.6-10.3-9.6h-21.1c-1.4-12.6-4.7-24.6-9.6-35.9l17.6-9.7c4.9-2.7 6.5-8.6 3.7-13.1l-7.5-12c-2.8-4.5-9-5.9-13.8-3.2l-17 9.6c-7.8-9.9-17-18.6-27.3-25.9l9.4-15.8c2.7-4.6 1.1-10.3-3.6-12.7L412 14.8c-4.7-2.4-10.6-.6-13.2 3.9l-9.1 15.5c-11.5-4.4-23.8-7.3-36.5-8.3V8.8c0-5-4.2-9-9.3-8.7l-13.6.6c-5.1.2-9.2 4.5-9.2 9.5V27c-12.3 2-24 5.6-34.8 10.6l-8.4-14.3c-2.4-4.2-7.9-5.4-12.1-2.8l-11.2 6.9c-4.2 2.6-5.6 8-3.2 12.2l8.4 14.4c-9.2 7.4-17.3 15.9-24.1 25.5l-14.6-8.3c-4.1-2.3-9.3-.8-11.6 3.4l-6.2 11.2c-2.3 4.2-1 9.5 3.1 11.8l14.8 8.6c-4.1 10.4-6.9 21.5-8.1 33h-17.5c-4.6 0-8.3 3.9-8.3 8.7zm60.6 4.7c0-48.4 39.3-88.5 89.2-89.7 51.7-1.3 95 39.4 95 90.9 0 51.5-43.3 91.6-95 89.7-49.9-1.8-89.2-42.5-89.2-90.9z"/>
  </g>
  <g id="gearSmall" class="rellax" data-rellax-speed="-.5">
    <path class="st1" d="m32.3 139.6-7.6 2.1 3.2 3.3 4.4-5.4zM55 190l-7.3 2.5-2-5.9L55 190zM88.8 212.2l-6.5 2.5-1.5-4.9 8 2.4zM124.6 217.8l5.8-2.2-6.6-6.7.8 8.9zM156.1 205.2l6.8-2.8-6.7-5.6-.1 8.4zM197.3 126.8l-6.5 2.3-.5-5.6 7 3.3zM190.4 169.7 184 172l-1.3-4.3 7.7 2z"/>
    <path class="st1" d="m29.3 144.8 1.3 6.8c.5 2.5 2.9 4.3 5.3 3.8l9.6-1.7c2 5.9 4.7 11.4 8 16.4l-7.7 6.5c-1.9 1.6-2.1 4.6-.5 6.6l4.4 5.4c1.7 2 4.6 2.4 6.5.8l8-6.6c4.5 4.1 9.6 7.7 15 10.6l-3.6 10.1c-.9 2.4.4 5.2 2.9 6.2l6.7 2.7c2.5 1 5.3-.1 6.2-2.6l3.7-10.2c6 1.5 12.2 2.2 18.6 2.1l2.1 11.2c.5 2.7 3.1 4.6 5.9 4.2l7.3-.9c2.8-.4 4.6-2.8 4.1-5.5l-2.1-11.3c6.3-1.7 12.2-4.1 17.7-7.3l7.8 9c1.9 2.2 5.2 2.6 7.5.9l6-4.6c2.3-1.7 2.6-4.9.7-7.1l-7.8-9c4.7-4.6 8.6-9.8 11.8-15.4l11.4 4c2.8 1 6-.3 7.1-3l2.8-7.1c1.1-2.7-.4-5.6-3.3-6.6l-11.3-3.9c1.7-6.3 2.4-12.9 2.1-19.7l11.6-2c3-.5 5.1-3.3 4.6-6.1l-1.4-7.5c-.5-2.8-3.4-4.7-6.5-4.1l-11.3 2.1c-2-6.6-5-12.7-8.7-18.2l8.4-7c2.3-1.9 2.6-5.2.7-7.4l-5.2-5.6c-1.9-2.1-5.4-2.3-7.7-.3l-8.1 6.8c-5.1-4.5-10.9-8.2-17.1-11.1l3.4-9.4c1-2.7-.4-5.6-3.2-6.4l-7.3-2.1c-2.7-.8-5.7.7-6.7 3.4l-3 9.3c-6.6-1.2-13.4-1.5-20.3-.8l-1.7-9.1c-.5-2.7-3.1-4.4-5.8-3.7L91 52c-2.7.6-4.4 3.3-4 6l1.7 9c-6.4 2.3-12.2 5.4-17.5 9.1l-5.9-6.8c-1.7-2-4.7-2.1-6.7-.3l-5.3 4.8c-2 1.8-2.2 4.8-.5 6.8l5.9 6.8c-4.1 4.8-7.6 10.3-10.3 16l-8.6-3c-2.4-.8-5 .5-5.8 3l-2.2 6.6c-.8 2.5.4 5.1 2.8 6l8.7 3.1c-1.2 6-1.5 12.1-1 18.4l-9.3 1.7c-2.5.6-4.1 3-3.7 5.6zm32.8-3.5c-4.8-25.8 12.1-51.1 38.6-56.8 27.5-5.8 54.6 11.5 59.8 39 5.1 27.5-13.9 53.2-41.7 57.4-26.8 3.9-51.8-13.8-56.7-39.6z"/>
    <path class="st1" d="m126.7 52.6 6.6-1.5 3.4 5.5-10-4zM61.4 67.7l-7.6 1.5 1.1 5.7 6.5-7.2zM37.3 100.4l-7.6 1.7 2.7 3.9 4.9-5.6zM171.9 72l-7.3 1.6 3.9 4.8 3.4-6.4z"/>
    <path class="st2" d="m21.9 146.9 1.3 6.8c.5 2.6 2.9 4.3 5.4 3.8l9.7-1.7c2 5.9 4.7 11.5 8.1 16.5l-7.7 6.5c-1.9 1.6-2.1 4.6-.5 6.6l4.5 5.4c1.7 2 4.7 2.4 6.6.8l8-6.6c4.6 4.2 9.6 7.8 15.1 10.7l-3.6 10.1c-.9 2.4.4 5.3 3 6.3l6.7 2.7c2.6 1 5.3-.1 6.2-2.6l3.8-10.3c6 1.5 12.3 2.3 18.8 2.1l2.1 11.3c.5 2.7 3.1 4.6 5.9 4.2l7.4-.9c2.8-.4 4.7-2.9 4.1-5.6l-2.1-11.4c6.4-1.7 12.3-4.1 17.8-7.3l7.9 9.1c1.9 2.2 5.3 2.6 7.5.9l6.1-4.6c2.3-1.7 2.6-4.9.7-7.1l-7.9-9.1c4.7-4.6 8.7-9.8 12-15.5l11.5 4.1c2.9 1 6.1-.3 7.1-3l2.8-7.1c1.1-2.7-.4-5.7-3.3-6.7l-11.4-3.9c1.7-6.4 2.4-13 2.2-19.8l11.7-2c3.1-.5 5.1-3.3 4.6-6.1l-1.4-7.6c-.5-2.8-3.5-4.7-6.5-4.1l-11.4 2.1c-2-6.6-5-12.8-8.8-18.3l8.5-7c2.4-1.9 2.7-5.3.7-7.4l-5.2-5.7c-2-2.1-5.4-2.3-7.7-.3l-8.2 6.9c-5.2-4.5-11-8.3-17.3-11.2l3.5-9.5c1-2.7-.4-5.6-3.2-6.4l-7.3-2.2c-2.7-.8-5.7.7-6.7 3.4l-3.3 9.2c-6.6-1.2-13.5-1.5-20.4-.8l-1.7-9.2c-.5-2.7-3.1-4.4-5.9-3.7L84 53.2c-2.7.6-4.5 3.3-4 6l1.7 9.1c-6.4 2.3-12.3 5.4-17.7 9.2l-6-6.8c-1.7-2-4.8-2.1-6.8-.3L46 75.3c-2 1.8-2.2 4.9-.5 6.9l6 6.9c-4.2 4.9-7.7 10.3-10.4 16.1l-8.7-3c-2.4-.8-5.1.5-5.9 3l-2.2 6.6c-.8 2.5.4 5.2 2.8 6L36 121c-1.2 6-1.6 12.2-1 18.6l-9.4 1.7c-2.6.5-4.2 3-3.7 5.6zm33.1-3.6c-4.9-26 12.2-51.5 38.9-57.2 27.7-5.9 55.1 11.6 60.2 39.3 5.2 27.7-14 53.6-42 57.8-27 4-52.3-13.9-57.1-39.9z"/>
  </g>
  <g id="monitor" class="rellax" data-rellax-speed="0">
    <linearGradient id="SVGID_2_" gradientUnits="userSpaceOnUse" x1="483.381" y1="273.241" x2="394.472" y2="282.531" gradientTransform="matrix(1 0 0 -1 0 588)">
      <stop offset=".004" stop-color="#26264f"/>
      <stop offset="1" stop-color="#444b8c"/>
    </linearGradient>
    <path d="M520 499.6c10.6.6 19.3-6.8 19.3-16.5V131.6c0-9.7-8.7-17.4-19.3-17L18.7 132.9c-8.2.3-14.7 7.4-14.7 15.9v305.3c0 8.5 6.6 15.8 14.7 16.2L520 499.6z" fill="url(#SVGID_2_)"/>
    <linearGradient id="SVGID_3_" gradientUnits="userSpaceOnUse" x1="293.85" y1="1.619" x2="275.012" y2="28.602" gradientTransform="matrix(1 0 0 -1 0 588)">
      <stop offset="0" stop-color="#444b8c"/>
      <stop offset=".996" stop-color="#26264f"/>
    </linearGradient>
    <path d="M193.2 538.5c8-2.8 14-9.9 15.7-18.7l11.7-60.6 99.8 3.7 12.3 63.1c1.7 8.8-5.2 17.7-13.1 20.9L277.9 564c-7.8 3.2-16.1 4.5-24.4 3.7l-88.2-7.9c-2.6-.2-4.7-2.4-5-5.1-.3-2.7-2.1-5.8.4-6.7l32.5-9.5z" fill="url(#SVGID_3_)"/>
    <linearGradient id="SVGID_4_" gradientUnits="userSpaceOnUse" x1="236.844" y1="8.538" x2="265.674" y2="165.043" gradientTransform="matrix(1 0 0 -1 0 588)">
      <stop offset="0" stop-color="#444b8c"/>
      <stop offset=".996" stop-color="#26264f"/>
    </linearGradient>
    <path d="M192.2 534.8c8-2.7 14-9.8 15.7-18.5l11.7-59.8 97.3 3.7 12.3 62.3c1.7 8.7-2.8 17.5-10.7 20.7l-41.7 16.9c-7.8 3.1-16.1 4.4-24.4 3.7l-88.1-7.8c-2.6-.2-4.6-2.3-4.9-5-.3-2.7 1.3-5.2 3.7-6.1l29.1-10.1z" fill="url(#SVGID_4_)"/>
    <linearGradient id="SVGID_5_" gradientUnits="userSpaceOnUse" x1="165.718" y1="440.585" x2="21.445" y2="646.496" gradientTransform="matrix(1 0 0 -1 0 588)">
      <stop offset="0" stop-color="#444b8c"/>
      <stop offset=".996" stop-color="#26264f"/>
    </linearGradient>
    <path d="M516 499.6c10.6.6 19.3-6.8 19.3-16.5V131.6c0-9.7-8.7-17.4-19.3-17L14.7 132.9c-8.1.3-14.7 7.4-14.7 15.9v305.3c0 8.5 6.6 15.8 14.7 16.2L516 499.6z" fill="url(#SVGID_5_)"/>
    <linearGradient id="SVGID_6_" gradientUnits="userSpaceOnUse" x1="228.378" y1="416.133" x2="408.845" y2="-157.054" gradientTransform="matrix(1 0 0 -1 0 588)">
      <stop offset="0" stop-color="#444b8c"/>
      <stop offset=".996" stop-color="#26264f"/>
    </linearGradient>
    <path d="M14.7 140 516 122.9c5.7-.2 10.3 3.9 10.3 9.1V482.6c0 5.2-4.6 9.2-10.3 8.8L14.7 463.1c-4.4-.3-7.9-4.1-7.9-8.7V148.5c0-4.5 3.5-8.3 7.9-8.5z" fill="url(#SVGID_6_)"/>
    <path class="st8" d="M516 461.5c2.2.1 4-1.4 4-3.5V132.1c0-2-1.8-3.6-4-3.6L14.7 145.1c-1.7.1-3.1 1.6-3.1 3.3v285.2c0 1.8 1.4 3.3 3.1 3.4L516 461.5z"/>
    <linearGradient id="SVGID_7_" gradientUnits="userSpaceOnUse" x1="218.597" y1="381.048" x2="387.782" y2="32.193" gradientTransform="matrix(1 0 0 -1 0 588)">
      <stop offset=".004" stop-color="#e38ddd"/>
      <stop offset="1" stop-color="#9571f6"/>
    </linearGradient>
    <path d="m31.8 419.4 462.3 20.3V177.3L31.8 187v232.4z" fill="url(#SVGID_7_)"/>
    <linearGradient id="SVGID_8_" gradientUnits="userSpaceOnUse" x1="263.274" y1="422.522" x2="273.257" y2="339.884" gradientTransform="matrix(1 0 0 -1 0 588)">
      <stop offset="0" stop-color="#ff9085"/>
      <stop offset="1" stop-color="#fb6fbb"/>
    </linearGradient>
    <path d="m31.8 179.1 462.3-10.7V146L31.8 159.2v19.9z" fill="url(#SVGID_8_)"/>
    <path class="st8" d="M66.9 168.2c0 1.4 1.1 2.5 2.5 2.5s2.5-1.2 2.5-2.6c0-1.4-1.1-2.5-2.5-2.5-1.4.1-2.5 1.2-2.5 2.6zM56.7 168.5c0 1.4 1.1 2.5 2.5 2.5s2.5-1.2 2.5-2.6c0-1.4-1.1-2.5-2.5-2.5s-2.5 1.2-2.5 2.6zM46.5 168.8c0 1.4 1.1 2.5 2.5 2.5s2.5-1.2 2.5-2.6c0-1.4-1.1-2.5-2.5-2.5s-2.5 1.2-2.5 2.6z"/>
    <path class="st12" d="M125.3 377.5 484 388.8V184.1l-358.7 7v186.4z" opacity=".68"/>
    <path class="st12" d="m36.7 245.3 82.3-.4v-53.7l-82.3 1.6v52.5z"/>
    <path class="st8" d="m36.7 254.9 82.3-.1v-4l-82.3.2v3.9zM67.4 261.6H119v-4l-51.7.1v3.9z"/>
    <path class="st12" d="m36.7 322.3 82.3 1.4V270l-82.3-.2v52.5z"/>
    <path class="st8" d="m36.7 331.9 82.3 1.6v-4L36.7 328v3.9zM67.4 339.3l51.7 1.1v-4l-51.7-1v3.9z"/>
    <path class="st12" d="m36.7 399.2 82.3 3.1v-53.7l-82.3-1.9v52.5z"/>
    <path class="st8" d="m36.7 408.9 82.3 3.4v-4L36.7 405v3.9zM67.4 417l51.7 2.2v-4L67.4 413v4zM235.8 402.6l248.2 9.2v-13.5L235.8 390v12.6zM125.3 398.5l35.4 1.3v-12.4l-35.4-1.2v12.3zM166.2 400l36.2 1.3v-12.5l-36.2-1.2V400z"/>
  </g>
  <g id="leafUp" class="rellax" data-rellax-speed=".2">
    <linearGradient id="SVGID_9_" gradientUnits="userSpaceOnUse" x1="504.088" y1="146.076" x2="371.053" y2="146.076" gradientTransform="matrix(1 0 0 -1 0 588)">
      <stop offset="0" stop-color="#ffc444"/>
      <stop offset=".996" stop-color="#f36f56"/>
    </linearGradient>
    <path d="M371.1 557.1c10.3-10.9 23.7-28.4 28.8-52.3 6.7-31.3-6.7-46.2-8.4-98.5-1.1-33.1-1.5-56.2 14.4-69.5 12.5-10.4 33.5-13.6 46.8-5.4 11.1 6.8 18.2 22.3 20.8 33.5 2.1 9.1 1.3 15.9 6.8 20.4 5.7 4.6 11.4 1.5 16.7 4.8 10.7 6.8 6.2 31.8 5.5 35.9-8.1 45-47.1 77.3-64.4 91.2-14.2 11.5-36.3 27-67 39.9z" fill="url(#SVGID_9_)"/>
    <g class="st14">
      <g class="st14">
        <path class="st15" d="m359.1 566.1-.4-1c32.6-14.6 72.9-40.3 80-79.4 2.6-14.4.5-29-2.4-49.3-2.3-16.2-5.4-27.4-8.2-37.3-3.6-13-6.4-23.2-5.8-38.4.7-15.4 4.8-30.9 12.3-46l.9.5c-7.4 15-11.5 30.4-12.2 45.6-.6 15 2.2 25.2 5.7 38 2.7 10 5.9 21.2 8.2 37.4 2.8 19.6 5 35 2.4 49.6-3.4 18.6-14.7 36-33.5 51.6-12.5 10.7-28.4 20.3-47 28.7z"/>
      </g>
      <g class="st14">
        <path class="st15" d="m435.2 425.1-.6-.2c-.1 0-11.2-4.2-22.7-14.7-10.6-9.7-23.7-26.9-25.9-53.9l1-.1c2.2 26.7 15.1 43.7 25.6 53.2 9.9 9 19.4 13.3 21.8 14.2 7.1-29.9 21.8-49.3 32.9-60.2 12.1-12 22.7-16.9 22.8-17l.4 1c-.1 0-10.6 4.9-22.5 16.8-11.1 11-25.7 30.3-32.7 60.3l-.1.6z"/>
      </g>
      <g class="st14">
        <path class="st15" d="m440.2 468.9-.2-.3c-.1-.1-11.7-15.1-26.3-27.8-14.5-12.6-46.8-15.4-47.1-15.4l.1-1c.3 0 33 2.8 47.7 15.7 13.5 11.8 24.5 25.4 26.2 27.6 33-12.4 64.2-93.1 64.5-94l1 .4c-.1.2-8 20.9-20 42.7-16.1 29.4-31.4 46.9-45.5 52l-.4.1z"/>
      </g>
      <g class="st14">
        <path class="st15" d="m411.1 533.2.5-.9c7.7-15.4 5.5-31-6.5-46.3-9-11.5-20.4-18.5-20.5-18.5l.6-.9c.1.1 11.7 7.1 20.8 18.8 11.9 15.1 14.3 31.2 7.1 46.5 3.8-.8 18-4 35.6-11.3 18.9-7.9 45.8-22.3 66.1-46.3l39.5-46.6.8.7-39.5 46.6C495 499 468 513.5 449 521.5c-20.6 8.6-36.7 11.5-36.8 11.6l-1.1.1z"/>
      </g>
    </g>
  </g>
  <g id="leafDown" class="rellax" data-rellax-speed=".4">
    <linearGradient id="SVGID_10_" gradientUnits="userSpaceOnUse" x1="451.95" y1="159.026" x2="491.033" y2="54.12" gradientTransform="matrix(1 0 0 -1 0 588)">
      <stop offset="0" stop-color="#aa80f9"/>
      <stop offset=".996" stop-color="#6165d7"/>
    </linearGradient>
    <path d="M404 565.8c23.5 3.1 53.8 3.8 84.1-5.5 7.7-2.4 55.5-17.1 52.8-38.3-1-7.5-7.4-9.5-8.8-19.5-1.7-11.8 6.2-16.6 13-30.3 4-8.1 15.9-31.9 2.7-47.6-7.9-9.4-24.3-15.4-37.6-14-19.5 2-28.3 19.6-42.7 49.6-12.8 26.6-11.3 33.7-20.8 52.7-7.2 14.1-19.6 33.1-42.7 52.9z" fill="url(#SVGID_10_)"/>
    <g class="st14">
      <g class="st14">
        <path class="st15" d="m523.5 386.1-1 .2c3.3 20.2 1.8 38.4-4.5 54.3-11.1 28-54 120.1-141.1 129.7-5 .6-10.1.8-15.1.8.2.3.4.7.5 1.1 4.9 0 9.9-.3 14.8-.9 32.7-3.6 62.6-19.1 88.9-46 27.3-28 43.9-61.3 53-84.3 6.3-16.1 7.9-34.5 4.5-54.9z"/>
      </g>
      <g class="st14">
        <path class="st15" d="m496.1 485.9-.3-.4c-.1-.1-5.6-9.1-9.3-22.4-3.4-12.2-6-30.6 1.3-48.8l1 .4c-7.3 17.9-4.7 36-1.3 48.1 3.3 11.5 7.9 19.8 9 21.7 53.9-26.1 58.1-63.1 58.1-73.9v-.5l1 .1v.4c0 11-4.3 48.7-59.1 75l-.4.3z"/>
      </g>
      <g class="st14">
        <path class="st15" d="M498.3 529.8c-9.3 0-20.1-1.3-32.5-4.8l-.3-.1-.1-.3c-.1-.3-9.9-30.8-1.9-69.6l8-39.1 1 .2-8 39.1c-7.5 36.6.9 65.8 1.8 68.8 29.8 8.3 50.5 4 62.6-1 13.2-5.5 19.4-13 19.5-13.1l.8.7c-.3.3-6.4 7.8-19.8 13.4-7.2 3-17.6 5.8-31.1 5.8z"/>
      </g>
    </g>
  </g>
  <g id="phone" class="rellax" data-rellax-speed="0">
    <linearGradient id="SVGID_11_" gradientUnits="userSpaceOnUse" x1="476.722" y1="104.339" x2="354.013" y2="99.771" gradientTransform="matrix(1 0 0 -1 0 588)">
      <stop offset="0" stop-color="#444b8c"/>
      <stop offset=".996" stop-color="#26264f"/>
    </linearGradient>
    <path d="m373.4 389.9-16.2 182.4c-.3 2.8 1.7 5.2 4.3 5.5l87.9 9.1c5.3.3 8-2.6 8.3-5.4L473.3 392c.2-2.8-2.4-5.4-7.6-5.6l-87.1-1.3c-2.6-.1-4.9 2.1-5.2 4.8z" fill="url(#SVGID_11_)"/>
    <linearGradient id="SVGID_12_" gradientUnits="userSpaceOnUse" x1="424.648" y1="72.974" x2="405.944" y2="119.399" gradientTransform="matrix(1 0 0 -1 0 588)">
      <stop offset="0" stop-color="#444b8c"/>
      <stop offset=".996" stop-color="#26264f"/>
    </linearGradient>
    <path d="M369.5 389.5 353.1 573c-.3 2.8 1.7 5.3 4.3 5.5l91.3 8.4c2.8.3 5.3-1.9 5.5-4.8l15.7-190.5c.2-2.8-1.9-5.1-4.6-5.2l-90.6-1.7c-2.7-.1-5 2-5.2 4.8z" fill="url(#SVGID_12_)"/>
    <path class="st8" d="m371.5 399.6-15.2 170.1c-.2 2.6 1.6 4.9 4 5.1l85.8 7.8c2.6.2 4.9-1.8 5.1-4.5l14.6-176.2c.2-2.6-1.7-4.8-4.3-4.9l-85.2-2c-2.4 0-4.6 2.1-4.8 4.6z"/>
    <linearGradient id="SVGID_13_" gradientUnits="userSpaceOnUse" x1="442.436" y1="139.414" x2="378.574" y2="232.07" gradientTransform="matrix(1 0 0 -1 0 588)">
      <stop offset="0" stop-color="#ff9085"/>
      <stop offset="1" stop-color="#fb6fbb"/>
    </linearGradient>
    <path d="M371.5 399.6c.2-2.5 2.4-4.6 4.8-4.5l85.2 2c2.6.1 4.5 2.3 4.3 4.9l-2.1 25.2-94.5-2.3 2.3-25.3z" fill="url(#SVGID_13_)"/>
    <linearGradient id="SVGID_14_" gradientUnits="userSpaceOnUse" x1="415.824" y1="203.881" x2="530.496" y2="-74.371" gradientTransform="matrix(1 0 0 -1 0 588)">
      <stop offset="0" stop-color="#ffc444"/>
      <stop offset=".996" stop-color="#f36f56"/>
    </linearGradient>
    <path d="M417 391c-.1 1 .6 1.7 1.5 1.8.9 0 1.7-.7 1.8-1.7.1-1-.6-1.7-1.5-1.8-.9 0-1.7.8-1.8 1.7z" fill="url(#SVGID_14_)"/>
    <linearGradient id="SVGID_15_" gradientUnits="userSpaceOnUse" x1="438.327" y1="140.544" x2="386.227" y2="32.134" gradientTransform="matrix(1 0 0 -1 0 588)">
      <stop offset=".004" stop-color="#e38ddd"/>
      <stop offset="1" stop-color="#9571f6"/>
    </linearGradient>
    <path d="m405.2 494.7 42.7 2.1 5.9-60.3-42.9-1.1-5.7 59.3z" fill="url(#SVGID_15_)"/>
    <linearGradient id="SVGID_16_" gradientUnits="userSpaceOnUse" x1="414.742" y1="177.429" x2="354.771" y2="52.641" gradientTransform="matrix(1 0 0 -1 0 588)">
      <stop offset=".004" stop-color="#e38ddd"/>
      <stop offset="1" stop-color="#9571f6"/>
    </linearGradient>
    <path d="m373.6 493.1 25.1 1.2 5.6-59.1-25.2-.7-5.5 58.6z" fill="url(#SVGID_16_)"/>
    <linearGradient id="SVGID_17_" gradientUnits="userSpaceOnUse" x1="430.837" y1="112.513" x2="389.328" y2="26.142" gradientTransform="matrix(1 0 0 -1 0 588)">
      <stop offset=".004" stop-color="#e38ddd"/>
      <stop offset="1" stop-color="#9571f6"/>
    </linearGradient>
    <path d="m369.2 540.3 73.9 5.1 4-40.7-74.2-3.9-3.7 39.5z" fill="url(#SVGID_17_)"/>
    <linearGradient id="SVGID_18_" gradientUnits="userSpaceOnUse" x1="419.753" y1="60.645" x2="392.074" y2="3.051" gradientTransform="matrix(1 0 0 -1 0 588)">
      <stop offset=".004" stop-color="#e38ddd"/>
      <stop offset="1" stop-color="#9571f6"/>
    </linearGradient>
    <path d="m366.8 564.9 73.8 5.8 1.8-18.2-73.9-5.3-1.7 17.7z" fill="url(#SVGID_18_)"/>
    <path d="M391.4 515.4c8.8-30.9 34.6-27.8 42.4-55.7 6.3-22.9-8.3-35 .6-54.2 4.2-9 11.5-15.1 19-19.3l11.9.2c2.8 0 4.9 2.4 4.6 5.2l-15.7 190.5c-.2 2.9-2.7 5-5.5 4.8l-74.8-6.9c4.8-6.1 9.3-13.5 12.5-22.4 6.5-19 .1-25.1 5-42.2z" opacity=".48" fill="#fff"/>
  </g>
  <g id="wordpress" class="rellax" data-rellax-speed=".05">
    <path class="st8" d="M267.7 361.1c43.2 0 78.1-35 78.1-78.1 0-43.2-35-78.1-78.1-78.1s-78.1 35-78.1 78.1c-.1 43.1 34.9 78.1 78.1 78.1z"/>
    <linearGradient id="SVGID_19_" gradientUnits="userSpaceOnUse" x1="196.989" y1="305.021" x2="338.367" y2="305.021" gradientTransform="matrix(1 0 0 -1 0 588)">
      <stop offset="0" stop-color="#ff9085"/>
      <stop offset="1" stop-color="#fb6fbb"/>
    </linearGradient>
    <path d="M267.7 212.3c-39 0-70.7 31.7-70.7 70.7s31.7 70.7 70.7 70.7 70.7-31.7 70.7-70.7c-.1-39-31.8-70.7-70.7-70.7zM204.1 283c0-9.2 2-18 5.5-25.9l30.3 83.1c-21.2-10.4-35.8-32.1-35.8-57.2zm63.6 63.5c-6.3 0-12.2-.9-18-2.6l19.1-55.4 19.5 53.5c.1.3.3.6.5.9-6.6 2.3-13.7 3.6-21.1 3.6zm8.7-93.3c3.8-.2 7.3-.6 7.3-.6 3.4-.4 3-5.4-.4-5.3 0 0-10.3.8-16.9.8-6.3 0-16.7-.8-16.7-.8-3.4-.2-3.8 5.1-.4 5.3 0 0 3.2.4 6.7.6l9.9 27.1-14 41.7-23.2-68.8c3.8-.2 7.3-.6 7.3-.6 3.4-.4 3-5.4-.4-5.3 0 0-10.3.8-16.9.8-1.2 0-2.6 0-4.1-.1 11.4-17.2 30.9-28.6 53.1-28.6 16.5 0 31.6 6.3 42.9 16.7-.3 0-.5-.1-.8-.1-6.3 0-10.7 5.4-10.7 11.3 0 5.3 3 9.7 6.3 14.9 2.4 4.2 5.3 9.7 5.3 17.5 0 5.4-2.1 11.7-4.8 20.5l-6.3 21.2-23.2-68.2zm23.2 84.7 19.4-56.1c3.6-9.1 4.8-16.3 4.8-22.8 0-2.3-.1-4.5-.4-6.5 5 9.1 7.8 19.4 7.8 30.5 0 23.4-12.7 43.9-31.6 54.9z" fill="url(#SVGID_19_)"/>
  </g>
</svg>