<svg version="1.1" id="Layer_1" xmlns="http://www.w3.org/2000/svg" xmlns:xlink="http://www.w3.org/1999/xlink" x="0px" y="0px" viewBox="0 0 556 587" style="enable-background:new 0 0 556 587;" xml:space="preserve">
	<style type="text/css">
	.st0 {
		fill: url(#SVGID_1_);
	}

	.st1 {
		fill: #97A6B7;
	}

	.st2 {
		fill: #D8DEE8;
	}

	.st3 {
		fill: url(#SVGID_2_);
	}

	.st4 {
		fill: url(#SVGID_3_);
	}

	.st5 {
		fill: url(#SVGID_4_);
	}

	.st6 {
		fill: url(#SVGID_5_);
	}

	.st7 {
		fill: url(#SVGID_6_);
	}

	.st8 {
		fill: #FFFFFF;
	}

	.st9 {
		fill: url(#SVGID_7_);
	}

	.st10 {
		fill: url(#SVGID_8_);
	}

	.st11 {
		opacity: 0.68;
	}

	.st12 {
		opacity: 0.68;
		fill: #FFFFFF;
		enable-background: new;
	}

	.st13 {
		fill: url(#SVGID_9_);
	}

	.st14 {
		opacity: 0.5;
	}

	.st15 {
		opacity: 0.5;
		fill: #FFFFFF;
		enable-background: new;
	}

	.st16 {
		fill: url(#SVGID_10_);
	}

	.st17 {
		fill: url(#SVGID_11_);
	}

	.st18 {
		fill: url(#SVGID_12_);
	}

	.st19 {
		fill: url(#SVGID_13_);
	}

	.st20 {
		fill: url(#SVGID_14_);
	}

	.st21 {
		fill: url(#SVGID_15_);
	}

	.st22 {
		fill: url(#SVGID_16_);
	}

	.st23 {
		fill: url(#SVGID_17_);
	}

	.st24 {
		fill: url(#SVGID_18_);
	}

	.st25 {
		opacity: 0.48;
	}

	.st26 {
		opacity: 0.48;
		fill: #FFFFFF;
		enable-background: new;
	}

	.st27 {
		fill: url(#SVGID_19_);
	}
</style>
	<g id="base" class="rellax" data-rellax-speed="0.4">

		<linearGradient id="SVGID_1_" gradientUnits="userSpaceOnUse" x1="-327.7921" y1="210.4624" x2="-249.4532" y2="0.1866" gradientTransform="matrix(-0.6921 0.7218 -0.7218 -0.6921 110.742 693.2902)">
			<stop offset="0" style="stop-color:#AA80F9;stop-opacity:0.7" />
			<stop offset="0.9964" style="stop-color:#6165D7;stop-opacity:0.7" />
		</linearGradient>
		<path class="st0" d="M314.5,419.7c-40.7-12.5-48.9-24.6-105.2-43c-63.4-20.7-101.1-32.3-131-7c-20.4,17.3-34.4,49.5-31.8,73.8
c4.4,40.8,55.3,56.6,72.7,62.1c29.1,9.1,47,4.3,61.8,23.2c12.5,16,6.4,28,15.9,39.8c27,33.4,114.5-15.3,128.7-23.2
c55.5-30.9,96.7-75.7,124.7-114C389.5,437.4,344.8,428.9,314.5,419.7z" />
	</g>
	<g id="gearBig" class="rellax" data-rellax-speed="-0.3">
		<g>
			<path class="st1" d="M208.5,138.3l-14.3,1.1l4.7,7L208.5,138.3z" />
			<path class="st1" d="M232.3,236.6l-13.9,2l-1.7-11.4L232.3,236.6z" />
			<path class="st1" d="M285.5,287.8l-12.5,2.3l-1-9.2L285.5,287.8z" />
			<path class="st1" d="M347.9,309.9l11.2-2l-9.6-14.3L347.9,309.9z" />
			<path class="st1" d="M408.6,297.9l13.1-2.7L411.6,283L408.6,297.9z" />
			<path class="st1" d="M509.1,170.9l-12.5,1.8l1-10.2L509.1,170.9z" />
			<path class="st1" d="M482.3,245.7l-12.2,2l-1-8.1L482.3,245.7z" />
			<path class="st1" d="M201.4,146.7v12.6c0,4.7,3.7,8.6,8.3,8.7l17.8,0.2c1.5,11.2,4.6,22,8.9,32.1l-15.9,9c-4,2.3-5.4,7.5-3.1,11.7
l6.2,11.2c2.3,4.2,7.5,5.8,11.5,3.6l16.5-9.1c6.7,9,14.6,17.1,23.4,24.1l-9.9,16.8c-2.4,4.1-1,9.5,3.2,12.1l11.1,7
c4.2,2.7,9.6,1.5,12-2.6l10.2-17.1c10.2,4.7,21.2,8.1,32.7,10.1v20.8c0,5,4.1,9.2,9.1,9.5l13.5,0.8c5.1,0.3,9.3-3.5,9.3-8.5v-21
c11.9-0.8,23.3-3.3,34.2-7.1l11,18.8c2.6,4.6,8.5,6.4,13.1,4.1l12.3-6.1c4.7-2.3,6.3-7.9,3.6-12.5L429.1,257
c9.9-6.6,18.8-14.6,26.5-23.7l19.2,11.1c4.8,2.8,10.9,1.5,13.7-3l7.4-11.8c2.8-4.4,1.1-10.3-3.7-13l-19-10.8
c5.1-10.8,8.7-22.4,10.5-34.6l21.5,0.3c5.6,0.1,10.2-4.1,10.2-9.4v-14c0-5.3-4.6-9.5-10.2-9.5l-20.9,0
c-1.4-12.5-4.7-24.5-9.5-35.6l17.5-9.7c4.8-2.7,6.5-8.5,3.7-13l-7.4-11.9c-2.8-4.4-8.9-5.8-13.7-3.1l-16.9,9.5
c-7.7-9.8-16.9-18.4-27.1-25.6l9.3-15.7c2.7-4.5,1.1-10.2-3.6-12.6l-12.3-6.3c-4.6-2.4-10.5-0.6-13.1,3.9l-9,15.3
c-11.4-4.4-23.5-7.2-36.2-8.3v-17c0-5-4.1-8.9-9.3-8.6l-13.5,0.6c-5,0.2-9.1,4.4-9.1,9.4v16.8c-12.2,1.9-23.8,5.5-34.5,10.5
l-8.3-14.1c-2.4-4.1-7.8-5.4-12-2.8l-11.1,6.9c-4.1,2.6-5.6,8-3.2,12.1l8.3,14.3c-9.1,7.3-17.1,15.8-23.9,25.3L235,70.7
c-4-2.3-9.2-0.8-11.5,3.4l-6.2,11.1c-2.3,4.1-0.9,9.4,3.1,11.7l14.7,8.5c-4.1,10.3-6.8,21.3-8,32.8l-17.3,0
C205.1,138.1,201.4,141.9,201.4,146.7z M261.5,151.4c0-48,38.9-87.8,88.5-89c51.3-1.3,94.2,39.1,94.2,90.1
c0,51.1-42.9,90.8-94.2,89C300.4,239.7,261.5,199.4,261.5,151.4z" />
			<path class="st1" d="M407.4,14l12.3-0.4l4.3,11.1L407.4,14z" />
			<path class="st1" d="M285,19.1l-14.2,0.1v10.5L285,19.1z" />
			<path class="st1" d="M230.7,69.7l-14.2,0.6l3.6,7.9L230.7,69.7z" />
			<path class="st1" d="M482,64.1l-13.6,0.4l5.4,9.9L482,64.1z" />
		</g>
		<path class="st2" d="M187.3,147.9v12.7c0,4.8,3.7,8.7,8.4,8.7l17.9,0.2c1.5,11.3,4.6,22.2,8.9,32.4l-16.1,9.1
c-4,2.3-5.4,7.6-3.1,11.8l6.2,11.2c2.3,4.3,7.5,5.9,11.6,3.6l16.6-9.2c6.8,9,14.7,17.2,23.6,24.3l-10,17c-2.4,4.1-1,9.6,3.2,12.2
l11.2,7.1c4.2,2.7,9.6,1.5,12.1-2.6l10.3-17.3c10.3,4.7,21.3,8.2,32.9,10.2v20.9c0,5,4.1,9.3,9.2,9.6l13.6,0.8
c5.1,0.3,9.3-3.5,9.3-8.6v-21.2c12-0.9,23.5-3.3,34.5-7.1l11.1,19c2.7,4.6,8.6,6.4,13.2,4.1l12.4-6.2c4.7-2.3,6.3-8,3.6-12.6
l-11.2-18.9c10-6.7,19-14.7,26.7-23.9l19.4,11.2c4.8,2.8,11,1.5,13.8-3l7.5-11.9c2.8-4.5,1.1-10.4-3.7-13.1l-19.1-10.9
c5.1-10.9,8.8-22.6,10.6-34.9l21.7,0.3c5.7,0.1,10.3-4.2,10.3-9.5v-14.1c0-5.3-4.6-9.6-10.3-9.6l-21.1,0
c-1.4-12.6-4.7-24.6-9.6-35.9l17.6-9.7c4.9-2.7,6.5-8.6,3.7-13.1l-7.5-12c-2.8-4.5-9-5.9-13.8-3.2l-17,9.6
c-7.8-9.9-17-18.6-27.3-25.9l9.4-15.8c2.7-4.6,1.1-10.3-3.6-12.7L412,14.8c-4.7-2.4-10.6-0.6-13.2,3.9l-9.1,15.5
c-11.5-4.4-23.8-7.3-36.5-8.3V8.8c0-5-4.2-9-9.3-8.7l-13.6,0.6c-5.1,0.2-9.2,4.5-9.2,9.5V27c-12.3,2-24,5.6-34.8,10.6l-8.4-14.3
c-2.4-4.2-7.9-5.4-12.1-2.8l-11.2,6.9c-4.2,2.6-5.6,8-3.2,12.2l8.4,14.4c-9.2,7.4-17.3,15.9-24.1,25.5l-14.6-8.3
c-4.1-2.3-9.3-0.8-11.6,3.4l-6.2,11.2c-2.3,4.2-1,9.5,3.1,11.8l14.8,8.6c-4.1,10.4-6.9,21.5-8.1,33l-17.5,0
C191,139.2,187.3,143.1,187.3,147.9z M247.9,152.6c0-48.4,39.3-88.5,89.2-89.7c51.7-1.3,95,39.4,95,90.9c0,51.5-43.3,91.6-95,89.7
C287.2,241.7,247.9,201,247.9,152.6z" />
	</g>
	<g id="gearSmall" class="rellax" data-rellax-speed="-0.5">
		<g>
			<path class="st1" d="M32.3,139.6l-7.6,2.1l3.2,3.3L32.3,139.6z" />
			<path class="st1" d="M55,190l-7.3,2.5l-2-5.9L55,190z" />
			<path class="st1" d="M88.8,212.2l-6.5,2.5l-1.5-4.9L88.8,212.2z" />
			<path class="st1" d="M124.6,217.8l5.8-2.2l-6.6-6.7L124.6,217.8z" />
			<path class="st1" d="M156.1,205.2l6.8-2.8l-6.7-5.6L156.1,205.2z" />
			<path class="st1" d="M197.3,126.8l-6.5,2.3l-0.5-5.6L197.3,126.8z" />
			<path class="st1" d="M190.4,169.7L184,172l-1.3-4.3L190.4,169.7z" />
			<path class="st1" d="M29.3,144.8l1.3,6.8c0.5,2.5,2.9,4.3,5.3,3.8l9.6-1.7c2,5.9,4.7,11.4,8,16.4l-7.7,6.5
c-1.9,1.6-2.1,4.6-0.5,6.6l4.4,5.4c1.7,2,4.6,2.4,6.5,0.8l8-6.6c4.5,4.1,9.6,7.7,15,10.6l-3.6,10.1c-0.9,2.4,0.4,5.2,2.9,6.2
l6.7,2.7c2.5,1,5.3-0.1,6.2-2.6l3.7-10.2c6,1.5,12.2,2.2,18.6,2.1l2.1,11.2c0.5,2.7,3.1,4.6,5.9,4.2l7.3-0.9
c2.8-0.4,4.6-2.8,4.1-5.5l-2.1-11.3c6.3-1.7,12.2-4.1,17.7-7.3l7.8,9c1.9,2.2,5.2,2.6,7.5,0.9l6-4.6c2.3-1.7,2.6-4.9,0.7-7.1
l-7.8-9c4.7-4.6,8.6-9.8,11.8-15.4l11.4,4c2.8,1,6-0.3,7.1-3l2.8-7.1c1.1-2.7-0.4-5.6-3.3-6.6l-11.3-3.9
c1.7-6.3,2.4-12.9,2.1-19.7l11.6-2c3-0.5,5.1-3.3,4.6-6.1l-1.4-7.5c-0.5-2.8-3.4-4.7-6.5-4.1l-11.3,2.1c-2-6.6-5-12.7-8.7-18.2
l8.4-7c2.3-1.9,2.6-5.2,0.7-7.4l-5.2-5.6c-1.9-2.1-5.4-2.3-7.7-0.3l-8.1,6.8c-5.1-4.5-10.9-8.2-17.1-11.1l3.4-9.4
c1-2.7-0.4-5.6-3.2-6.4l-7.3-2.1c-2.7-0.8-5.7,0.7-6.7,3.4L126,64c-6.6-1.2-13.4-1.5-20.3-0.8l-1.7-9.1c-0.5-2.7-3.1-4.4-5.8-3.7
L91,52c-2.7,0.6-4.4,3.3-4,6l1.7,9c-6.4,2.3-12.2,5.4-17.5,9.1l-5.9-6.8c-1.7-2-4.7-2.1-6.7-0.3l-5.3,4.8c-2,1.8-2.2,4.8-0.5,6.8
l5.9,6.8c-4.1,4.8-7.6,10.3-10.3,16l-8.6-3c-2.4-0.8-5,0.5-5.8,3l-2.2,6.6c-0.8,2.5,0.4,5.1,2.8,6l8.7,3.1c-1.2,6-1.5,12.1-1,18.4
l-9.3,1.7C30.5,139.8,28.9,142.2,29.3,144.8z M62.1,141.3c-4.8-25.8,12.1-51.1,38.6-56.8c27.5-5.8,54.6,11.5,59.8,39
c5.1,27.5-13.9,53.2-41.7,57.4C92,184.8,67,167.1,62.1,141.3z" />
			<path class="st1" d="M126.7,52.6l6.6-1.5l3.4,5.5L126.7,52.6z" />
			<path class="st1" d="M61.4,67.7l-7.6,1.5l1.1,5.7L61.4,67.7z" />
			<path class="st1" d="M37.3,100.4l-7.6,1.7l2.7,3.9L37.3,100.4z" />
			<path class="st1" d="M171.9,72l-7.3,1.6l3.9,4.8L171.9,72z" />
		</g>
		<path class="st2" d="M21.9,146.9l1.3,6.8c0.5,2.6,2.9,4.3,5.4,3.8l9.7-1.7c2,5.9,4.7,11.5,8.1,16.5l-7.7,6.5
c-1.9,1.6-2.1,4.6-0.5,6.6l4.5,5.4c1.7,2,4.7,2.4,6.6,0.8l8-6.6c4.6,4.2,9.6,7.8,15.1,10.7l-3.6,10.1c-0.9,2.4,0.4,5.3,3,6.3
l6.7,2.7c2.6,1,5.3-0.1,6.2-2.6l3.8-10.3c6,1.5,12.3,2.3,18.8,2.1l2.1,11.3c0.5,2.7,3.1,4.6,5.9,4.2l7.4-0.9
c2.8-0.4,4.7-2.9,4.1-5.6l-2.1-11.4c6.4-1.7,12.3-4.1,17.8-7.3l7.9,9.1c1.9,2.2,5.3,2.6,7.5,0.9l6.1-4.6c2.3-1.7,2.6-4.9,0.7-7.1
l-7.9-9.1c4.7-4.6,8.7-9.8,12-15.5l11.5,4.1c2.9,1,6.1-0.3,7.1-3l2.8-7.1c1.1-2.7-0.4-5.7-3.3-6.7l-11.4-3.9
c1.7-6.4,2.4-13,2.2-19.8l11.7-2c3.1-0.5,5.1-3.3,4.6-6.1l-1.4-7.6c-0.5-2.8-3.5-4.7-6.5-4.1l-11.4,2.1c-2-6.6-5-12.8-8.8-18.3
l8.5-7c2.4-1.9,2.7-5.3,0.7-7.4l-5.2-5.7c-2-2.1-5.4-2.3-7.7-0.3l-8.2,6.9c-5.2-4.5-11-8.3-17.3-11.2l3.5-9.5
c1-2.7-0.4-5.6-3.2-6.4l-7.3-2.2c-2.7-0.8-5.7,0.7-6.7,3.4l-3.3,9.2c-6.6-1.2-13.5-1.5-20.4-0.8l-1.7-9.2c-0.5-2.7-3.1-4.4-5.9-3.7
L84,53.2c-2.7,0.6-4.5,3.3-4,6l1.7,9.1c-6.4,2.3-12.3,5.4-17.7,9.2l-6-6.8c-1.7-2-4.8-2.1-6.8-0.3L46,75.3c-2,1.8-2.2,4.9-0.5,6.9
l6,6.9c-4.2,4.9-7.7,10.3-10.4,16.1l-8.7-3c-2.4-0.8-5.1,0.5-5.9,3l-2.2,6.6c-0.8,2.5,0.4,5.2,2.8,6L36,121c-1.2,6-1.6,12.2-1,18.6
l-9.4,1.7C23,141.8,21.4,144.3,21.9,146.9z M55,143.3c-4.9-26,12.2-51.5,38.9-57.2c27.7-5.9,55.1,11.6,60.2,39.3
c5.2,27.7-14,53.6-42,57.8C85.1,187.2,59.8,169.3,55,143.3z" />
	</g>
	<g id="monitor" class="rellax" data-rellax-speed="-0">

		<linearGradient id="SVGID_2_" gradientUnits="userSpaceOnUse" x1="483.3807" y1="273.2415" x2="394.4717" y2="282.5305" gradientTransform="matrix(1 0 0 -1 0 588)">
			<stop offset="3.597000e-03" style="stop-color:#26264F" />
			<stop offset="1" style="stop-color:#444B8C" />
		</linearGradient>
		<path class="st3" d="M520,499.6c10.6,0.6,19.3-6.8,19.3-16.5V131.6c0-9.7-8.7-17.4-19.3-17L18.7,132.9C10.5,133.2,4,140.3,4,148.8
v305.3c0,8.5,6.6,15.8,14.7,16.2L520,499.6z" />

		<linearGradient id="SVGID_3_" gradientUnits="userSpaceOnUse" x1="293.85" y1="1.6195" x2="275.012" y2="28.6025" gradientTransform="matrix(1 0 0 -1 0 588)">
			<stop offset="0" style="stop-color:#444B8C" />
			<stop offset="0.9964" style="stop-color:#26264F" />
		</linearGradient>
		<path class="st4" d="M193.2,538.5c8-2.8,14-9.9,15.7-18.7l11.7-60.6l99.8,3.7l12.3,63.1c1.7,8.8-5.2,17.7-13.1,20.9l-41.7,17.1
c-7.8,3.2-16.1,4.5-24.4,3.7l-88.2-7.9c-2.6-0.2-4.7-2.4-5-5.1c-0.3-2.7-2.1-5.8,0.4-6.7L193.2,538.5z" />

		<linearGradient id="SVGID_4_" gradientUnits="userSpaceOnUse" x1="236.8439" y1="8.5376" x2="265.674" y2="165.0426" gradientTransform="matrix(1 0 0 -1 0 588)">
			<stop offset="0" style="stop-color:#444B8C" />
			<stop offset="0.9964" style="stop-color:#26264F" />
		</linearGradient>
		<path class="st5" d="M192.2,534.8c8-2.7,14-9.8,15.7-18.5l11.7-59.8l97.3,3.7l12.3,62.3c1.7,8.7-2.8,17.5-10.7,20.7l-41.7,16.9
c-7.8,3.1-16.1,4.4-24.4,3.7l-88.1-7.8c-2.6-0.2-4.6-2.3-4.9-5c-0.3-2.7,1.3-5.2,3.7-6.1L192.2,534.8z" />

		<linearGradient id="SVGID_5_" gradientUnits="userSpaceOnUse" x1="165.718" y1="440.5852" x2="21.4452" y2="646.4962" gradientTransform="matrix(1 0 0 -1 0 588)">
			<stop offset="0" style="stop-color:#444B8C" />
			<stop offset="0.9964" style="stop-color:#26264F" />
		</linearGradient>
		<path class="st6" d="M516,499.6c10.6,0.6,19.3-6.8,19.3-16.5V131.6c0-9.7-8.7-17.4-19.3-17L14.7,132.9C6.6,133.2,0,140.3,0,148.8
v305.3c0,8.5,6.6,15.8,14.7,16.2L516,499.6z" />

		<linearGradient id="SVGID_6_" gradientUnits="userSpaceOnUse" x1="228.3776" y1="416.1331" x2="408.8446" y2="-157.0539" gradientTransform="matrix(1 0 0 -1 0 588)">
			<stop offset="0" style="stop-color:#444B8C" />
			<stop offset="0.9964" style="stop-color:#26264F" />
		</linearGradient>
		<path class="st7" d="M14.7,140L516,122.9c5.7-0.2,10.3,3.9,10.3,9.1v273.4v77.2c0,5.2-4.6,9.2-10.3,8.8L14.7,463.1
c-4.4-0.3-7.9-4.1-7.9-8.7v-69.8V148.5C6.8,144,10.3,140.2,14.7,140z" />
		<path class="st8" d="M516,461.5c2.2,0.1,4-1.4,4-3.5V132.1c0-2-1.8-3.6-4-3.6L14.7,145.1c-1.7,0.1-3.1,1.6-3.1,3.3v285.2
c0,1.8,1.4,3.3,3.1,3.4L516,461.5z" />

		<linearGradient id="SVGID_7_" gradientUnits="userSpaceOnUse" x1="218.5969" y1="381.0484" x2="387.782" y2="32.1933" gradientTransform="matrix(1 0 0 -1 0 588)">
			<stop offset="3.597120e-03" style="stop-color:#E38DDD" />
			<stop offset="1" style="stop-color:#9571F6" />
		</linearGradient>
		<path class="st9" d="M31.8,419.4l462.3,20.3V177.3L31.8,187V419.4z" />

		<linearGradient id="SVGID_8_" gradientUnits="userSpaceOnUse" x1="263.2735" y1="422.5215" x2="273.2565" y2="339.8835" gradientTransform="matrix(1 0 0 -1 0 588)">
			<stop offset="0" style="stop-color:#FF9085" />
			<stop offset="1" style="stop-color:#FB6FBB" />
		</linearGradient>
		<path class="st10" d="M31.8,179.1l462.3-10.7v-22.4L31.8,159.2V179.1z" />
		<path class="st8" d="M66.9,168.2c0,1.4,1.1,2.5,2.5,2.5c1.4,0,2.5-1.2,2.5-2.6c0-1.4-1.1-2.5-2.5-2.5
C68,165.7,66.9,166.8,66.9,168.2z" />
		<path class="st8" d="M56.7,168.5c0,1.4,1.1,2.5,2.5,2.5c1.4,0,2.5-1.2,2.5-2.6c0-1.4-1.1-2.5-2.5-2.5
C57.8,165.9,56.7,167.1,56.7,168.5z" />
		<path class="st8" d="M46.5,168.8c0,1.4,1.1,2.5,2.5,2.5s2.5-1.2,2.5-2.6c0-1.4-1.1-2.5-2.5-2.5C47.6,166.2,46.5,167.4,46.5,168.8z" />
		<g class="st11">
			<path class="st12" d="M125.3,377.5L484,388.8V184.1l-358.7,7V377.5z" />
		</g>
		<path class="st12" d="M36.7,245.3l82.3-0.4v-53.7l-82.3,1.6V245.3z" />
		<path class="st8" d="M36.7,254.9l82.3-0.1v-4L36.7,251V254.9z" />
		<path class="st8" d="M67.4,261.6H119v-4l-51.7,0.1V261.6z" />
		<path class="st12" d="M36.7,322.3l82.3,1.4v-53.7l-82.3-0.2V322.3z" />
		<path class="st8" d="M36.7,331.9l82.3,1.6v-4l-82.3-1.5V331.9z" />
		<path class="st8" d="M67.4,339.3l51.7,1.1v-4l-51.7-1V339.3z" />
		<path class="st12" d="M36.7,399.2l82.3,3.1v-53.7l-82.3-1.9V399.2z" />
		<path class="st8" d="M36.7,408.9l82.3,3.4v-4l-82.3-3.3V408.9z" />
		<path class="st8" d="M67.4,417l51.7,2.2v-4L67.4,413V417z" />
		<path class="st8" d="M235.8,402.6l248.2,9.2v-13.5L235.8,390V402.6z" />
		<path class="st8" d="M125.3,398.5l35.4,1.3v-12.4l-35.4-1.2V398.5z" />
		<path class="st8" d="M166.2,400l36.2,1.3v-12.5l-36.2-1.2V400z" />
	</g>
	<g id="leafUp" class="rellax" data-rellax-speed="0.2">

		<linearGradient id="SVGID_9_" gradientUnits="userSpaceOnUse" x1="504.088" y1="146.0764" x2="371.053" y2="146.0764" gradientTransform="matrix(1 0 0 -1 0 588)">
			<stop offset="0" style="stop-color:#FFC444" />
			<stop offset="0.9964" style="stop-color:#F36F56" />
		</linearGradient>
		<path class="st13" d="M371.1,557.1c10.3-10.9,23.7-28.4,28.8-52.3c6.7-31.3-6.7-46.2-8.4-98.5c-1.1-33.1-1.5-56.2,14.4-69.5
c12.5-10.4,33.5-13.6,46.8-5.4c11.1,6.8,18.2,22.3,20.8,33.5c2.1,9.1,1.3,15.9,6.8,20.4c5.7,4.6,11.4,1.5,16.7,4.8
c10.7,6.8,6.2,31.8,5.5,35.9c-8.1,45-47.1,77.3-64.4,91.2C423.9,528.7,401.8,544.2,371.1,557.1z" />
		<g class="st14">
			<g class="st14">
				<path class="st15" d="M359.1,566.1l-0.4-1c32.6-14.6,72.9-40.3,80-79.4c2.6-14.4,0.5-29-2.4-49.3c-2.3-16.2-5.4-27.4-8.2-37.3
c-3.6-13-6.4-23.2-5.8-38.4c0.7-15.4,4.8-30.9,12.3-46l0.9,0.5c-7.4,15-11.5,30.4-12.2,45.6c-0.6,15,2.2,25.2,5.7,38
c2.7,10,5.9,21.2,8.2,37.4c2.8,19.6,5,35,2.4,49.6c-3.4,18.6-14.7,36-33.5,51.6C393.6,548.1,377.7,557.7,359.1,566.1z" />
			</g>
			<g class="st14">
				<path class="st15" d="M435.2,425.1l-0.6-0.2c-0.1,0-11.2-4.2-22.7-14.7c-10.6-9.7-23.7-26.9-25.9-53.9l1-0.1
c2.2,26.7,15.1,43.7,25.6,53.2c9.9,9,19.4,13.3,21.8,14.2c7.1-29.9,21.8-49.3,32.9-60.2c12.1-12,22.7-16.9,22.8-17l0.4,1
c-0.1,0-10.6,4.9-22.5,16.8c-11.1,11-25.7,30.3-32.7,60.3L435.2,425.1z" />
			</g>
			<g class="st14">
				<path class="st15" d="M440.2,468.9l-0.2-0.3c-0.1-0.1-11.7-15.1-26.3-27.8c-14.5-12.6-46.8-15.4-47.1-15.4l0.1-1
c0.3,0,33,2.8,47.7,15.7c13.5,11.8,24.5,25.4,26.2,27.6c33-12.4,64.2-93.1,64.5-94l1,0.4c-0.1,0.2-8,20.9-20,42.7
c-16.1,29.4-31.4,46.9-45.5,52L440.2,468.9z" />
			</g>
			<g class="st14">
				<path class="st15" d="M411.1,533.2l0.5-0.9c7.7-15.4,5.5-31-6.5-46.3c-9-11.5-20.4-18.5-20.5-18.5l0.6-0.9
c0.1,0.1,11.7,7.1,20.8,18.8c11.9,15.1,14.3,31.2,7.1,46.5c3.8-0.8,18-4,35.6-11.3c18.9-7.9,45.8-22.3,66.1-46.3l39.5-46.6
l0.8,0.7l-39.5,46.6C495,499,468,513.5,449,521.5c-20.6,8.6-36.7,11.5-36.8,11.6L411.1,533.2z" />
			</g>
		</g>
	</g>
	<g id="leafDown" class="rellax" data-rellax-speed="0.4">

		<linearGradient id="SVGID_10_" gradientUnits="userSpaceOnUse" x1="451.9504" y1="159.0262" x2="491.0334" y2="54.1202" gradientTransform="matrix(1 0 0 -1 0 588)">
			<stop offset="0" style="stop-color:#AA80F9" />
			<stop offset="0.9964" style="stop-color:#6165D7" />
		</linearGradient>
		<path class="st16" d="M404,565.8c23.5,3.1,53.8,3.8,84.1-5.5c7.7-2.4,55.5-17.1,52.8-38.3c-1-7.5-7.4-9.5-8.8-19.5
c-1.7-11.8,6.2-16.6,13-30.3c4-8.1,15.9-31.9,2.7-47.6c-7.9-9.4-24.3-15.4-37.6-14c-19.5,2-28.3,19.6-42.7,49.6
c-12.8,26.6-11.3,33.7-20.8,52.7C439.5,527,427.1,546,404,565.8z" />
		<g class="st14">
			<g class="st14">
				<path class="st15" d="M523.5,386.1l-1,0.2c3.3,20.2,1.8,38.4-4.5,54.3c-11.1,28-54,120.1-141.1,129.7c-5,0.6-10.1,0.8-15.1,0.8
c0.2,0.3,0.4,0.7,0.5,1.1c4.9,0,9.9-0.3,14.8-0.9c32.7-3.6,62.6-19.1,88.9-46c27.3-28,43.9-61.3,53-84.3
C525.3,424.9,526.9,406.5,523.5,386.1z" />
			</g>
			<g class="st14">
				<path class="st15" d="M496.1,485.9l-0.3-0.4c-0.1-0.1-5.6-9.1-9.3-22.4c-3.4-12.2-6-30.6,1.3-48.8l1,0.4
c-7.3,17.9-4.7,36-1.3,48.1c3.3,11.5,7.9,19.8,9,21.7c53.9-26.1,58.1-63.1,58.1-73.9c0-0.3,0-0.4,0-0.5l1,0.1c0,0.1,0,0.2,0,0.4
c0,11-4.3,48.7-59.1,75L496.1,485.9z" />
			</g>
			<g class="st14">
				<path class="st15" d="M498.3,529.8c-9.3,0-20.1-1.3-32.5-4.8l-0.3-0.1l-0.1-0.3c-0.1-0.3-9.9-30.8-1.9-69.6l8-39.1l1,0.2l-8,39.1
c-7.5,36.6,0.9,65.8,1.8,68.8c29.8,8.3,50.5,4,62.6-1c13.2-5.5,19.4-13,19.5-13.1l0.8,0.7c-0.3,0.3-6.4,7.8-19.8,13.4
C522.2,527,511.8,529.8,498.3,529.8z" />
			</g>
		</g>
	</g>
	<g id="phone" class="rellax" data-rellax-speed="0">

		<linearGradient id="SVGID_11_" gradientUnits="userSpaceOnUse" x1="476.7218" y1="104.3388" x2="354.0134" y2="99.7707" gradientTransform="matrix(1 0 0 -1 0 588)">
			<stop offset="0" style="stop-color:#444B8C" />
			<stop offset="0.9964" style="stop-color:#26264F" />
		</linearGradient>
		<path class="st17" d="M373.4,389.9l-16.2,182.4c-0.3,2.8,1.7,5.2,4.3,5.5l87.9,9.1c5.3,0.3,8-2.6,8.3-5.4L473.3,392
c0.2-2.8-2.4-5.4-7.6-5.6l-87.1-1.3C376,385,373.7,387.2,373.4,389.9z" />

		<linearGradient id="SVGID_12_" gradientUnits="userSpaceOnUse" x1="424.6484" y1="72.9738" x2="405.9444" y2="119.3988" gradientTransform="matrix(1 0 0 -1 0 588)">
			<stop offset="0" style="stop-color:#444B8C" />
			<stop offset="0.9964" style="stop-color:#26264F" />
		</linearGradient>
		<path class="st18" d="M369.5,389.5l-16.4,183.5c-0.3,2.8,1.7,5.3,4.3,5.5l91.3,8.4c2.8,0.3,5.3-1.9,5.5-4.8l15.7-190.5
c0.2-2.8-1.9-5.1-4.6-5.2l-90.6-1.7C372,384.6,369.7,386.7,369.5,389.5z" />
		<path class="st8" d="M371.5,399.6l-15.2,170.1c-0.2,2.6,1.6,4.9,4,5.1l85.8,7.8c2.6,0.2,4.9-1.8,5.1-4.5l14.6-176.2
c0.2-2.6-1.7-4.8-4.3-4.9l-85.2-2C373.9,395,371.7,397.1,371.5,399.6z" />

		<linearGradient id="SVGID_13_" gradientUnits="userSpaceOnUse" x1="442.4363" y1="139.4141" x2="378.5743" y2="232.0701" gradientTransform="matrix(1 0 0 -1 0 588)">
			<stop offset="0" style="stop-color:#FF9085" />
			<stop offset="1" style="stop-color:#FB6FBB" />
		</linearGradient>
		<path class="st19" d="M371.5,399.6c0.2-2.5,2.4-4.6,4.8-4.5l85.2,2c2.6,0.1,4.5,2.3,4.3,4.9l-2.1,25.2l-94.5-2.3L371.5,399.6z" />

		<linearGradient id="SVGID_14_" gradientUnits="userSpaceOnUse" x1="415.8237" y1="203.881" x2="530.4957" y2="-74.371" gradientTransform="matrix(1 0 0 -1 0 588)">
			<stop offset="0" style="stop-color:#FFC444" />
			<stop offset="0.9964" style="stop-color:#F36F56" />
		</linearGradient>
		<path class="st20" d="M417,391c-0.1,1,0.6,1.7,1.5,1.8c0.9,0,1.7-0.7,1.8-1.7c0.1-1-0.6-1.7-1.5-1.8
C417.9,389.3,417.1,390.1,417,391z" />

		<linearGradient id="SVGID_15_" gradientUnits="userSpaceOnUse" x1="438.3267" y1="140.5444" x2="386.2267" y2="32.1344" gradientTransform="matrix(1 0 0 -1 0 588)">
			<stop offset="3.597120e-03" style="stop-color:#E38DDD" />
			<stop offset="1" style="stop-color:#9571F6" />
		</linearGradient>
		<path class="st21" d="M405.2,494.7l42.7,2.1l5.9-60.3l-42.9-1.1L405.2,494.7z" />

		<linearGradient id="SVGID_16_" gradientUnits="userSpaceOnUse" x1="414.7424" y1="177.4288" x2="354.7714" y2="52.6408" gradientTransform="matrix(1 0 0 -1 0 588)">
			<stop offset="3.597120e-03" style="stop-color:#E38DDD" />
			<stop offset="1" style="stop-color:#9571F6" />
		</linearGradient>
		<path class="st22" d="M373.6,493.1l25.1,1.2l5.6-59.1l-25.2-0.7L373.6,493.1z" />

		<linearGradient id="SVGID_17_" gradientUnits="userSpaceOnUse" x1="430.8366" y1="112.5129" x2="389.3276" y2="26.1419" gradientTransform="matrix(1 0 0 -1 0 588)">
			<stop offset="3.597120e-03" style="stop-color:#E38DDD" />
			<stop offset="1" style="stop-color:#9571F6" />
		</linearGradient>
		<path class="st23" d="M369.2,540.3l73.9,5.1l4-40.7l-74.2-3.9L369.2,540.3z" />

		<linearGradient id="SVGID_18_" gradientUnits="userSpaceOnUse" x1="419.7531" y1="60.6454" x2="392.0741" y2="3.0514" gradientTransform="matrix(1 0 0 -1 0 588)">
			<stop offset="3.597120e-03" style="stop-color:#E38DDD" />
			<stop offset="1" style="stop-color:#9571F6" />
		</linearGradient>
		<path class="st24" d="M366.8,564.9l73.8,5.8l1.8-18.2l-73.9-5.3L366.8,564.9z" />
		<g class="st25">
			<path class="st26" d="M391.4,515.4c8.8-30.9,34.6-27.8,42.4-55.7c6.3-22.9-8.3-35,0.6-54.2c4.2-9,11.5-15.1,19-19.3l11.9,0.2
c2.8,0,4.9,2.4,4.6,5.2l-15.7,190.5c-0.2,2.9-2.7,5-5.5,4.8l-74.8-6.9c4.8-6.1,9.3-13.5,12.5-22.4
C392.9,538.6,386.5,532.5,391.4,515.4z" />
		</g>
	</g>
	<g id="wordpress" class="rellax" data-rellax-speed="0.05">
		<path class="st8" d="M267.7,361.1c43.2,0,78.1-35,78.1-78.1c0-43.2-35-78.1-78.1-78.1s-78.1,35-78.1,78.1
C189.5,326.1,224.5,361.1,267.7,361.1z" />

		<linearGradient id="SVGID_19_" gradientUnits="userSpaceOnUse" x1="196.989" y1="305.021" x2="338.367" y2="305.021" gradientTransform="matrix(1 0 0 -1 0 588)">
			<stop offset="0" style="stop-color:#FF9085" />
			<stop offset="1" style="stop-color:#FB6FBB" />
		</linearGradient>
		<path class="st27" d="M267.7,212.3c-39,0-70.7,31.7-70.7,70.7c0,39,31.7,70.7,70.7,70.7s70.7-31.7,70.7-70.7
C338.3,244,306.6,212.3,267.7,212.3z M204.1,283c0-9.2,2-18,5.5-25.9l30.3,83.1C218.7,329.8,204.1,308.1,204.1,283z M267.7,346.5
c-6.3,0-12.2-0.9-18-2.6l19.1-55.4l19.5,53.5c0.1,0.3,0.3,0.6,0.5,0.9C282.2,345.2,275.1,346.5,267.7,346.5z M276.4,253.2
c3.8-0.2,7.3-0.6,7.3-0.6c3.4-0.4,3-5.4-0.4-5.3c0,0-10.3,0.8-16.9,0.8c-6.3,0-16.7-0.8-16.7-0.8c-3.4-0.2-3.8,5.1-0.4,5.3
c0,0,3.2,0.4,6.7,0.6l9.9,27.1L251.9,322l-23.2-68.8c3.8-0.2,7.3-0.6,7.3-0.6c3.4-0.4,3-5.4-0.4-5.3c0,0-10.3,0.8-16.9,0.8
c-1.2,0-2.6,0-4.1-0.1c11.4-17.2,30.9-28.6,53.1-28.6c16.5,0,31.6,6.3,42.9,16.7c-0.3,0-0.5-0.1-0.8-0.1c-6.3,0-10.7,5.4-10.7,11.3
c0,5.3,3,9.7,6.3,14.9c2.4,4.2,5.3,9.7,5.3,17.5c0,5.4-2.1,11.7-4.8,20.5l-6.3,21.2L276.4,253.2z M299.6,337.9l19.4-56.1
c3.6-9.1,4.8-16.3,4.8-22.8c0-2.3-0.1-4.5-0.4-6.5c5,9.1,7.8,19.4,7.8,30.5C331.2,306.4,318.5,326.9,299.6,337.9z" />
	</g>
</svg>