<svg width="556" height="587" viewBox="0 0 556 587" fill="none" xmlns="http://www.w3.org/2000/svg">
<path d="M201.37 146.662V159.23C201.37 163.951 205.07 167.822 209.664 167.886L227.464 168.098C228.995 179.327 232.015 190.109 236.332 200.232L220.382 209.249C216.384 211.524 215.002 216.734 217.32 220.924L223.487 232.088C225.805 236.299 230.973 237.894 235.013 235.661L251.495 226.538C258.193 235.491 266.062 243.593 274.909 250.59L265.02 267.433C262.638 271.495 264.042 276.918 268.189 279.555L279.268 286.594C283.458 289.252 288.838 288.104 291.262 283.999L301.449 266.88C311.657 271.559 322.609 275.025 334.135 276.981V297.759C334.135 302.714 338.197 306.967 343.237 307.265L356.72 308.073C361.824 308.37 365.971 304.564 365.971 299.566V278.555C377.837 277.726 389.3 275.301 400.145 271.473L411.119 290.315C413.756 294.866 419.647 296.695 424.261 294.398L436.596 288.253C441.253 285.935 442.869 280.32 440.169 275.748L429.11 256.97C438.999 250.335 447.931 242.36 455.587 233.301L474.769 244.423C479.554 247.187 485.7 245.89 488.464 241.467L495.886 229.685C498.693 225.241 497.013 219.392 492.186 216.649L473.216 205.888C478.32 195.106 481.893 183.495 483.701 171.288L505.201 171.565C510.836 171.629 515.43 167.418 515.43 162.165V148.172C515.43 142.919 510.836 138.645 505.201 138.623L484.253 138.581C482.829 126.076 479.554 114.125 474.726 102.981L492.186 93.3263C497.034 90.6467 498.693 84.8411 495.886 80.3539L488.464 68.4661C485.678 64.0214 479.554 62.6178 474.769 65.3187L457.905 74.8672C450.164 65.0635 441.04 56.4294 430.833 49.2201L440.169 33.5256C442.869 28.9959 441.274 23.3604 436.596 20.9573L424.261 14.6412C419.647 12.2807 413.777 14.0245 411.119 18.5329L402.123 33.8659C390.703 29.4851 378.582 26.6567 365.971 25.6146V8.64415C365.971 3.64659 361.824 -0.223859 356.72 0.0100695L343.237 0.626789C338.197 0.860717 334.135 5.05017 334.135 10.0052V26.7843C321.928 28.7195 310.338 32.3135 299.62 37.311L291.284 23.169C288.859 19.0434 283.479 17.8099 279.289 20.4044L268.21 27.2734C264.063 29.8466 262.659 35.2482 265.041 39.3526L273.356 53.6435C264.254 60.9591 256.216 69.4656 249.474 78.9078L235.013 70.699C230.973 68.4023 225.805 69.9334 223.487 74.1229L217.32 85.2026C215.002 89.3495 216.384 94.581 220.382 96.9203L235.034 105.427C230.93 115.741 228.187 126.736 226.996 138.177L209.664 138.155C205.07 138.113 201.37 141.941 201.37 146.662ZM261.49 151.404C261.49 103.449 300.428 63.6174 349.957 62.4052C401.23 61.1505 444.145 101.514 444.145 152.553C444.145 203.613 401.23 243.402 349.957 241.509C300.428 239.702 261.49 199.381 261.49 151.404Z" fill="#97A6B7"/>
<path d="M407.355 13.982L419.689 13.5567L423.942 24.6364L407.355 13.982Z" fill="#97A6B7"/>
<path d="M284.968 19.0859L270.719 19.2348V29.7403L284.968 19.0859Z" fill="#97A6B7"/>
<path d="M230.717 69.742L216.533 70.3162L220.084 78.2486L230.717 69.742Z" fill="#97A6B7"/>
<path d="M208.452 138.262L194.118 139.41L198.797 146.364L208.452 138.262Z" fill="#97A6B7"/>
<path d="M232.27 236.597L218.383 238.575L216.66 227.219L232.27 236.597Z" fill="#97A6B7"/>
<path d="M285.478 287.806L272.995 290.082L271.995 280.852L285.478 287.806Z" fill="#97A6B7"/>
<path d="M347.894 309.944L359.102 307.945L349.468 293.612L347.894 309.944Z" fill="#97A6B7"/>
<path d="M408.631 297.886L421.688 295.185L411.608 282.979L408.631 297.886Z" fill="#97A6B7"/>
<path d="M481.978 64.064L468.346 64.4893L473.748 74.4207L481.978 64.064Z" fill="#97A6B7"/>
<path d="M509.071 170.905L496.588 172.734L497.587 162.527L509.071 170.905Z" fill="#97A6B7"/>
<path d="M482.255 245.656L470.048 247.655L469.069 239.574L482.255 245.656Z" fill="#97A6B7"/>
<path d="M187.292 147.853V160.528C187.292 165.291 191.035 169.204 195.649 169.247L213.598 169.46C215.129 180.773 218.192 191.64 222.53 201.869L206.453 210.971C202.412 213.247 201.03 218.521 203.369 222.731L209.579 233.981C211.918 238.235 217.128 239.851 221.19 237.597L237.82 228.41C244.583 237.448 252.515 245.614 261.447 252.674L251.473 269.645C249.07 273.749 250.495 279.215 254.663 281.852L265.828 288.933C270.06 291.613 275.462 290.443 277.928 286.318L288.2 269.049C298.493 273.77 309.53 277.258 321.141 279.236V300.183C321.141 305.181 325.246 309.455 330.328 309.774L343.918 310.582C349.064 310.88 353.253 307.052 353.253 302.012V280.831C365.226 279.98 376.795 277.535 387.705 273.685L398.763 292.697C401.421 297.27 407.355 299.12 412.012 296.802L424.453 290.592C429.153 288.253 430.769 282.596 428.047 277.981L416.882 259.054C426.856 252.377 435.852 244.338 443.592 235.193L462.945 246.422C467.772 249.229 473.961 247.889 476.768 243.445L484.253 231.578C487.082 227.091 485.402 221.222 480.532 218.436L461.392 207.569C466.539 196.702 470.154 184.984 471.983 172.671L493.653 172.947C499.331 173.011 503.967 168.779 503.967 163.484V149.384C503.967 144.089 499.352 139.772 493.653 139.772L472.536 139.729C471.111 127.14 467.815 115.082 462.923 103.853L480.532 94.1133C485.402 91.4125 487.082 85.543 484.253 81.0345L476.768 69.0617C473.961 64.5745 467.772 63.1496 462.945 65.893L445.932 75.5266C438.127 65.659 428.94 56.9399 418.647 49.6668L428.047 33.8448C430.769 29.2725 429.153 23.5944 424.453 21.1913L412.012 14.8115C407.355 12.4297 401.443 14.1948 398.763 18.7245L389.683 34.185C378.177 29.7616 365.928 26.912 353.232 25.8487V8.7506C353.232 3.7105 349.043 -0.202478 343.896 0.0314502L330.307 0.64817C325.225 0.882098 321.12 5.11408 321.12 10.1116V27.0396C308.807 28.9961 297.132 32.6113 286.307 37.6514L277.886 23.3818C275.44 19.2136 270.017 17.9801 265.785 20.5959L254.621 27.5287C250.452 30.1232 249.006 35.5673 251.431 39.693L259.831 54.1115C250.644 61.4909 242.541 70.0612 235.758 79.5884L221.169 71.3159C217.086 68.9978 211.897 70.5503 209.557 74.761L203.348 85.9258C201.03 90.1152 202.391 95.3893 206.431 97.7285L221.211 106.299C217.086 116.698 214.3 127.778 213.109 139.325L195.628 139.304C191.035 139.24 187.292 143.089 187.292 147.853ZM247.922 152.638C247.922 104.279 287.179 64.1279 337.134 62.9157C388.832 61.661 432.109 102.343 432.109 153.808C432.109 205.272 388.832 245.401 337.134 243.487C287.179 241.658 247.922 200.997 247.922 152.638Z" fill="#D8DEE8"/>
<path d="M29.3262 144.791L30.6021 151.553C31.07 154.084 33.4731 155.807 35.94 155.381L45.5311 153.701C47.4875 159.592 50.1884 165.079 53.5484 170.097L45.8926 176.562C43.9574 178.179 43.766 181.135 45.4247 183.155L49.8694 188.535C51.5494 190.556 54.4841 190.917 56.4194 189.301L64.3729 182.73C68.8814 186.877 73.9427 190.428 79.4082 193.299L75.7929 203.358C74.921 205.782 76.2182 208.568 78.7277 209.546L85.4053 212.205C87.9359 213.204 90.7006 212.056 91.5937 209.61L95.3366 199.381C101.291 200.87 107.543 201.614 113.923 201.508L116.029 212.694C116.539 215.352 119.155 217.245 121.898 216.883L129.235 215.947C132.021 215.586 133.85 213.119 133.361 210.44L131.234 199.147C137.529 197.488 143.462 195.043 148.906 191.895L156.711 200.934C158.582 203.103 161.942 203.507 164.175 201.805L170.194 197.254C172.469 195.532 172.767 192.363 170.853 190.173L163.006 181.198C167.663 176.626 171.64 171.437 174.851 165.802L186.292 169.842C189.142 170.842 192.311 169.523 193.353 166.865L196.16 159.783C197.223 157.104 195.734 154.148 192.864 153.148L181.571 149.278C183.23 142.962 183.974 136.348 183.719 129.607L195.309 127.586C198.35 127.055 200.392 124.333 199.86 121.504L198.457 113.976C197.925 111.147 195.033 109.319 191.992 109.871L180.721 111.977C178.7 105.406 175.723 99.3021 172.001 93.7942L180.423 86.8401C182.762 84.9049 183.06 81.6086 181.103 79.482L175.914 73.8464C173.979 71.7411 170.534 71.5922 168.237 73.5275L160.135 80.3752C154.988 75.888 149.204 72.1664 142.994 69.3167L146.418 59.9383C147.418 57.2162 145.971 54.3666 143.228 53.5372L135.955 51.3893C133.233 50.5812 130.256 52.1124 129.278 54.8132L125.981 63.9789C119.41 62.7667 112.584 62.469 105.715 63.1921L103.992 54.0688C103.482 51.368 100.866 49.7093 98.1437 50.3473L90.9557 52.0486C88.2762 52.6865 86.5111 55.3448 87.0002 58.0031L88.7015 67.02C82.3216 69.2955 76.4522 72.4003 71.1994 76.1645L65.2874 69.4018C63.5648 67.424 60.545 67.3177 58.5673 69.1253L53.3145 73.9315C51.3367 75.7391 51.1241 78.7802 52.8254 80.7367L58.7374 87.5844C54.5905 92.4331 51.1241 97.8348 48.4445 103.577L39.8317 100.621C37.4286 99.7913 34.8129 101.131 33.9835 103.619L31.7931 110.19C30.9637 112.657 32.2397 115.337 34.6215 116.188L43.3619 119.271C42.1923 125.247 41.8307 131.414 42.3411 137.709L33.0265 139.453C30.4533 139.814 28.8583 142.239 29.3262 144.791ZM62.14 141.282C57.2913 115.486 74.2192 90.1364 100.738 84.4796C128.193 78.6314 155.35 96.0059 160.496 123.461C165.643 150.915 146.588 176.647 118.815 180.816C91.9978 184.814 66.9887 167.056 62.14 141.282Z" fill="#97A6B7"/>
<path d="M126.704 52.644L133.297 51.1554L136.699 56.6846L126.704 52.644Z" fill="#97A6B7"/>
<path d="M61.3956 67.7431L53.761 69.253L54.8244 74.9098L61.3956 67.7431Z" fill="#97A6B7"/>
<path d="M37.3434 100.45L29.7726 102.194L32.4735 106.107L37.3434 100.45Z" fill="#97A6B7"/>
<path d="M32.2821 139.559L24.69 141.622L27.9225 144.876L32.2821 139.559Z" fill="#97A6B7"/>
<path d="M55.037 190.024L47.7426 192.512L45.701 186.579L55.037 190.024Z" fill="#97A6B7"/>
<path d="M88.8077 212.205L82.3214 214.693L80.8541 209.823L88.8077 212.205Z" fill="#97A6B7"/>
<path d="M124.62 217.798L130.447 215.607L123.812 208.866L124.62 217.798Z" fill="#97A6B7"/>
<path d="M156.052 205.187L162.814 202.422L156.158 196.872L156.052 205.187Z" fill="#97A6B7"/>
<path d="M171.895 72.0388L164.622 73.6338L168.514 78.44L171.895 72.0388Z" fill="#97A6B7"/>
<path d="M197.265 126.757L190.737 129.011L190.226 123.418L197.265 126.757Z" fill="#97A6B7"/>
<path d="M190.396 169.672L184.017 171.969L182.677 167.716L190.396 169.672Z" fill="#97A6B7"/>
<path d="M21.8829 146.853L23.1589 153.659C23.648 156.211 26.0511 157.933 28.5392 157.508L38.2154 155.807C40.1931 161.74 42.9152 167.269 46.2965 172.33L38.5769 178.838C36.6417 180.475 36.429 183.453 38.109 185.473L42.575 190.896C44.255 192.937 47.2323 193.278 49.1887 191.661L57.2061 185.048C61.7571 189.216 66.8397 192.81 72.3477 195.702L68.7112 205.846C67.8392 208.292 69.1577 211.099 71.6672 212.098L78.3873 214.778C80.9392 215.799 83.7251 214.629 84.6183 212.162L88.4037 201.848C94.422 203.358 100.696 204.102 107.16 203.996L109.266 215.267C109.776 217.946 112.413 219.839 115.178 219.499L122.579 218.563C125.386 218.202 127.236 215.713 126.725 213.013L124.578 201.614C130.936 199.955 136.891 197.467 142.377 194.298L150.246 203.4C152.139 205.591 155.52 205.995 157.774 204.272L163.835 199.679C166.132 197.935 166.429 194.745 164.494 192.533L156.583 183.474C161.283 178.88 165.302 173.649 168.535 167.95L180.082 172.033C182.953 173.053 186.143 171.714 187.207 169.034L190.035 161.889C191.098 159.188 189.61 156.189 186.696 155.211L175.319 151.298C176.978 144.939 177.743 138.262 177.488 131.457L189.163 129.415C192.225 128.883 194.288 126.14 193.757 123.29L192.332 115.698C191.8 112.849 188.865 110.999 185.824 111.573L174.468 113.678C172.427 107.043 169.428 100.897 165.685 95.3466L174.17 88.3287C176.531 86.3935 176.829 83.0547 174.851 80.9068L169.619 75.2288C167.663 73.1021 164.197 72.9533 161.879 74.9098L153.691 81.8C148.502 77.2703 142.675 73.5274 136.402 70.6352L139.868 61.1718C140.867 58.4284 139.421 55.5575 136.657 54.7281L129.32 52.5589C126.577 51.7508 123.578 53.282 122.6 56.0041L119.282 65.2336C112.647 64.0215 105.778 63.7237 98.8454 64.4255L97.1228 55.2172C96.6125 52.4951 93.9754 50.8364 91.2321 51.4744L83.9803 53.1757C81.2795 53.8137 79.4931 56.5145 80.0035 59.194L81.7048 68.296C75.2824 70.5927 69.3704 73.7188 64.0539 77.5255L58.0993 70.699C56.3555 68.7 53.3144 68.5937 51.3154 70.4226L45.9988 75.2713C44.0211 77.0789 43.7871 80.1625 45.5097 82.1403L51.4855 89.0518C47.2961 93.943 43.8084 99.3872 41.1076 105.172L32.431 102.194C30.0066 101.365 27.3696 102.726 26.5189 105.214L24.3073 111.849C23.4779 114.337 24.7538 117.038 27.1569 117.889L35.9611 120.994C34.7915 127.012 34.4087 133.243 34.9404 139.58L25.5407 141.324C23.0313 141.835 21.3938 144.28 21.8829 146.853ZM54.9732 143.302C50.0819 117.293 67.1587 91.7526 93.8904 86.0533C121.579 80.1625 148.949 97.6646 154.138 125.353C159.327 153.042 140.123 178.987 112.116 183.176C85.0649 187.217 59.8431 169.311 54.9732 143.302Z" fill="#D8DEE8"/>
<path d="M520.023 499.596C530.635 500.213 539.333 492.791 539.333 483.051V131.648C539.333 121.908 530.656 114.274 520.023 114.678L18.6718 132.86C10.5481 133.158 3.97687 140.282 3.97687 148.767V454.087C3.97687 462.551 10.5481 469.845 18.6718 470.313L520.023 499.596Z" fill="url(#paint0_linear)"/>
<path d="M193.161 538.493C201.179 535.707 207.154 528.561 208.856 519.799L220.51 459.233L320.291 462.955L332.561 526.052C334.284 534.899 327.394 543.745 319.461 546.999L277.716 564.14C269.954 567.33 261.617 568.606 253.302 567.861L165.09 559.95C162.517 559.716 160.432 557.59 160.135 554.868C159.837 552.145 158.029 549.083 160.496 548.211L193.161 538.493Z" fill="url(#paint1_linear)"/>
<path d="M192.162 534.813C200.158 532.07 206.155 525.01 207.835 516.354L219.489 456.554L316.824 460.233L329.095 522.543C330.818 531.262 326.267 540.024 318.356 543.235L276.652 560.163C268.89 563.31 260.554 564.565 252.281 563.82L164.154 555.994C161.581 555.761 159.518 553.676 159.22 550.976C158.923 548.275 160.475 545.744 162.921 544.893L192.162 534.813Z" fill="url(#paint2_linear)"/>
<path d="M516.046 499.596C526.658 500.213 535.356 492.791 535.356 483.051V131.648C535.356 121.908 526.68 114.274 516.046 114.678L14.695 132.86C6.57126 133.158 0 140.282 0 148.767V454.087C0 462.551 6.57126 469.845 14.695 470.313L516.046 499.596Z" fill="url(#paint3_linear)"/>
<path d="M14.6949 140.048L516.046 122.865C521.724 122.674 526.339 126.736 526.339 131.946V405.345V482.562C526.339 487.773 521.724 491.728 516.046 491.409L14.6949 463.125C10.3353 462.87 6.82639 458.999 6.82639 454.448V384.674V148.533C6.80512 144.004 10.3353 140.197 14.6949 140.048Z" fill="url(#paint4_linear)"/>
<path d="M516.047 461.53C518.258 461.636 520.066 460.084 520.066 458.042V132.137C520.066 130.117 518.258 128.522 516.047 128.586L14.695 145.067C12.9937 145.131 11.6114 146.619 11.6114 148.385V433.565C11.6114 435.33 12.9937 436.84 14.695 436.925L516.047 461.53Z" fill="white"/>
<path d="M31.7717 419.359L494.057 439.668V177.307L31.7717 187.004V419.359Z" fill="url(#paint5_linear)"/>
<path d="M31.7717 179.072L494.057 168.354V145.939L31.7717 159.23V179.072Z" fill="url(#paint6_linear)"/>
<path d="M66.8822 168.247C66.8822 169.672 67.9881 170.778 69.3704 170.757C70.7527 170.714 71.8585 169.544 71.8585 168.12C71.8585 166.695 70.7314 165.589 69.3704 165.61C67.9881 165.653 66.8822 166.822 66.8822 168.247Z" fill="white"/>
<path d="M56.6533 168.502C56.6533 169.906 57.7591 171.033 59.1414 170.991C60.5025 170.948 61.6296 169.778 61.6296 168.375C61.6296 166.95 60.5237 165.844 59.1414 165.887C57.7591 165.908 56.6533 167.099 56.6533 168.502Z" fill="white"/>
<path d="M46.4667 168.757C46.4667 170.16 47.5726 171.288 48.9336 171.245C50.2946 171.202 51.4005 170.033 51.4005 168.629C51.4005 167.226 50.2946 166.099 48.9336 166.141C47.5726 166.184 46.4667 167.353 46.4667 168.757Z" fill="white"/>
<g opacity="0.68">
<path opacity="0.68" d="M125.322 377.486L483.977 388.757V184.112L125.322 191.066V377.486Z" fill="white"/>
</g>
<path opacity="0.68" d="M36.7055 245.252L119.048 244.87V191.194L36.7055 192.767V245.252Z" fill="white"/>
<path d="M36.7055 254.865L119.048 254.716V250.697L36.7055 250.952V254.865Z" fill="white"/>
<path d="M67.3501 261.649H119.048V257.629L67.3501 257.693V261.649Z" fill="white"/>
<path opacity="0.68" d="M36.7055 322.257L119.048 323.64V269.942L36.7055 269.772V322.257Z" fill="white"/>
<path d="M36.7055 331.87L119.048 333.465V329.445L36.7055 327.935V331.87Z" fill="white"/>
<path d="M67.3501 339.313L119.048 340.419V336.378L67.3501 335.336V339.313Z" fill="white"/>
<path opacity="0.68" d="M36.7055 399.241L119.048 402.389V348.691L36.7055 346.756V399.241Z" fill="white"/>
<path d="M36.7055 408.853L119.048 412.214V408.194L36.7055 404.919V408.853Z" fill="white"/>
<path d="M67.3501 416.956L119.048 419.168V415.148L67.3501 412.979V416.956Z" fill="white"/>
<path d="M235.779 402.601L483.977 411.809V398.348L235.779 389.969V402.601Z" fill="white"/>
<path d="M125.322 398.497L160.73 399.815V387.438L125.322 386.247V398.497Z" fill="white"/>
<path d="M166.217 400.007L202.412 401.346V388.842L166.217 387.63V400.007Z" fill="white"/>
<path d="M370.415 423.4L483.977 428.057V421.337L370.415 416.85V423.4Z" fill="white"/>
<path d="M371.053 557.058C381.367 546.17 394.765 528.689 399.89 504.786C406.611 473.439 393.149 458.595 391.469 406.302C390.406 373.233 389.98 350.137 405.909 336.846C418.371 326.426 439.382 323.236 452.737 331.423C463.838 338.228 470.941 353.689 473.493 364.875C475.577 373.998 474.747 380.74 480.341 385.291C486.061 389.927 491.739 386.779 497.035 390.139C507.753 396.966 503.266 421.975 502.542 426.037C494.461 471.015 455.395 503.339 438.191 517.226C423.921 528.668 401.783 544.171 371.053 557.058Z" fill="url(#paint7_linear)"/>
<g opacity="0.5">
<g opacity="0.5">
<path opacity="0.5" d="M359.102 566.054L358.676 565.097C391.235 550.465 431.556 524.797 438.701 485.688C441.338 471.312 439.233 456.681 436.319 436.436C434.001 420.273 430.896 409.045 428.153 399.114C424.58 386.141 421.731 375.891 422.39 360.749C423.049 345.374 427.175 329.892 434.682 314.708L435.618 315.176C428.174 330.211 424.091 345.565 423.432 360.792C422.794 375.785 425.601 385.95 429.153 398.837C431.896 408.79 435.022 420.061 437.361 436.287C440.169 455.852 442.401 471.312 439.743 485.88C436.341 504.488 425.091 521.862 406.291 537.514C393.574 548.084 377.71 557.675 359.102 566.054Z" fill="white"/>
</g>
<g opacity="0.5">
<path opacity="0.5" d="M435.192 425.08L434.639 424.867C434.533 424.824 423.411 420.677 411.948 410.193C401.358 400.517 388.258 383.313 386.025 356.262L387.067 356.177C389.278 382.866 402.208 399.858 412.65 409.406C422.518 418.423 432.087 422.676 434.448 423.655C441.593 393.754 456.267 374.402 467.347 363.408C479.447 351.413 490.038 346.48 490.144 346.437L490.591 347.394C490.484 347.437 480.021 352.307 468.049 364.194C456.99 375.168 442.338 394.52 435.32 424.484L435.192 425.08Z" fill="white"/>
</g>
<g opacity="0.5">
<path opacity="0.5" d="M440.169 468.909L439.935 468.612C439.828 468.463 428.217 453.534 413.65 440.859C399.167 428.248 366.843 425.484 366.524 425.463L366.609 424.42C366.928 424.442 399.614 427.228 414.33 440.072C427.813 451.833 438.786 465.486 440.53 467.676C473.514 455.32 504.712 374.53 505.031 373.722L506.009 374.105C505.924 374.317 497.991 394.967 486.04 416.828C469.941 446.261 454.63 463.742 440.53 468.803L440.169 468.909Z" fill="white"/>
</g>
<g opacity="0.5">
<path opacity="0.5" d="M411.119 533.24L411.587 532.304C419.285 516.886 417.116 501.298 405.1 485.965C396.105 474.481 384.685 467.484 384.557 467.421L385.11 466.528C385.217 466.591 396.807 473.673 405.909 485.306C417.775 500.447 420.199 516.503 412.969 531.815C416.797 531.028 431.003 527.838 448.569 520.501C467.496 512.611 494.355 498.172 514.685 474.183L554.198 427.61L555.006 428.291L515.493 474.864C495.014 499.001 468.006 513.547 448.951 521.48C428.323 530.071 412.288 533.006 412.14 533.048L411.119 533.24Z" fill="white"/>
</g>
</g>
<path d="M403.952 565.798C427.409 568.946 457.756 569.605 488.06 560.269C495.801 557.887 543.586 543.192 540.864 521.926C539.907 514.44 533.485 512.463 532.039 502.467C530.316 490.622 538.227 485.837 545.011 472.206C549.052 464.082 560.918 440.285 547.754 424.612C539.886 415.255 523.447 409.194 510.177 410.576C490.718 412.596 481.872 430.162 467.432 460.169C454.63 486.773 456.139 493.876 446.591 512.867C439.488 526.966 427.09 546.021 403.952 565.798Z" fill="url(#paint8_linear)"/>
<g opacity="0.5">
<g opacity="0.5">
<path opacity="0.5" d="M361.569 572.242C342.004 572.242 322.184 568.201 302.427 560.141L302.831 559.163C327.67 569.265 352.594 573.029 376.944 570.328C464.051 560.673 506.945 468.59 518.003 440.604C524.277 424.718 525.786 406.45 522.469 386.269L523.511 386.099C526.871 406.45 525.34 424.931 518.981 440.987C509.879 464.018 493.27 497.364 465.943 525.329C439.637 552.252 409.737 567.734 377.072 571.349C371.904 571.966 366.758 572.242 361.569 572.242Z" fill="white"/>
</g>
<g opacity="0.5">
<path opacity="0.5" d="M496.078 485.944L495.822 485.54C495.759 485.455 490.208 476.395 486.486 463.189C483.041 450.982 480.468 432.587 487.826 414.383L488.804 414.787C481.553 432.714 484.083 450.833 487.486 462.87C490.74 474.396 495.376 482.69 496.482 484.583C550.349 458.532 554.56 421.464 554.56 410.704C554.56 410.363 554.56 410.257 554.581 410.172L555.623 410.3C555.623 410.363 555.623 410.491 555.623 410.704C555.623 421.656 551.348 459.403 496.524 485.731L496.078 485.944Z" fill="white"/>
</g>
<g opacity="0.5">
<path opacity="0.5" d="M498.332 529.794C489.017 529.794 478.193 528.476 465.858 525.031L465.582 524.946L465.497 524.669C465.391 524.372 455.629 493.833 463.562 455.044L471.558 415.935L472.578 416.148L464.582 455.256C457.097 491.877 465.476 521.011 466.411 524.095C496.163 532.346 516.876 528.093 529.04 523.053C542.247 517.588 548.478 510.038 548.541 509.974L549.35 510.634C549.094 510.953 542.927 518.417 529.508 524.01C522.214 527.03 511.836 529.794 498.332 529.794Z" fill="white"/>
</g>
</g>
<path d="M373.435 389.905L357.188 572.306C356.932 575.07 358.868 577.516 361.462 577.771L449.398 586.831C454.651 587.107 457.437 584.257 457.671 581.387L473.28 392.011C473.514 389.225 470.898 386.588 465.709 386.396L378.581 385.12C375.987 385.035 373.69 387.204 373.435 389.905Z" fill="url(#paint9_linear)"/>
<path d="M369.458 389.459L353.062 572.944C352.807 575.73 354.742 578.196 357.358 578.43L448.611 586.852C451.418 587.107 453.906 584.959 454.14 582.067L469.877 391.543C470.111 388.736 468.027 386.396 465.241 386.333L374.626 384.61C372.01 384.567 369.692 386.737 369.458 389.459Z" fill="url(#paint10_linear)"/>
<path d="M371.479 399.581L356.316 569.648C356.082 572.242 357.89 574.539 360.335 574.773L446.123 582.556C448.718 582.79 451.036 580.791 451.27 578.09L465.858 401.899C466.071 399.284 464.136 397.072 461.541 397.029L376.306 395.073C373.86 395.009 371.713 397.051 371.479 399.581Z" fill="white"/>
<path d="M371.478 399.581C371.712 397.051 373.86 395.03 376.285 395.073L461.52 397.029C464.114 397.093 466.049 399.284 465.837 401.899L463.753 427.121L369.224 424.846L371.478 399.581Z" fill="url(#paint11_linear)"/>
<path d="M416.988 390.99C416.903 391.947 417.584 392.734 418.52 392.755C419.455 392.776 420.263 392.011 420.349 391.054C420.434 390.097 419.753 389.31 418.817 389.289C417.903 389.289 417.073 390.054 416.988 390.99Z" fill="url(#paint12_linear)"/>
<path d="M405.207 494.684L447.867 496.789L453.736 436.5L410.864 435.415L405.207 494.684Z" fill="url(#paint13_linear)"/>
<path d="M373.563 493.11L398.635 494.344L404.25 435.245L379.049 434.586L373.563 493.11Z" fill="url(#paint14_linear)"/>
<path d="M369.161 540.279L443.103 545.361L447.101 504.637L372.861 500.724L369.161 540.279Z" fill="url(#paint15_linear)"/>
<path d="M366.843 564.905L440.636 570.711L442.423 552.464L368.501 547.19L366.843 564.905Z" fill="url(#paint16_linear)"/>
<g opacity="0.48">
<path opacity="0.48" d="M391.384 515.418C400.23 484.519 426.026 487.602 433.746 459.68C440.083 436.733 425.474 424.654 434.342 405.451C438.51 396.413 445.804 390.309 453.375 386.141L465.241 386.375C468.027 386.418 470.111 388.778 469.877 391.585L454.14 582.109C453.906 585.001 451.418 587.149 448.611 586.894L373.797 579.983C378.581 573.922 383.111 566.479 386.28 557.568C392.915 538.641 386.493 532.495 391.384 515.418Z" fill="white"/>
</g>
<path d="M267.678 361.111C310.829 361.111 345.81 326.13 345.81 282.979C345.81 239.827 310.829 204.846 267.678 204.846C224.527 204.846 189.546 239.827 189.546 282.979C189.546 326.13 224.527 361.111 267.678 361.111Z" fill="white"/>
<path d="M267.678 212.29C228.718 212.29 196.989 243.976 196.989 282.979C196.989 321.938 228.718 353.668 267.678 353.668C306.638 353.668 338.367 321.938 338.367 282.979C338.346 243.998 306.617 212.29 267.678 212.29ZM204.113 282.979C204.113 273.77 206.091 265.009 209.621 257.119L239.926 340.185C218.723 329.849 204.113 308.115 204.113 282.979ZM267.678 346.522C261.426 346.522 255.429 345.608 249.708 343.906L268.784 288.487L288.285 342.014C288.434 342.333 288.562 342.609 288.753 342.886C282.182 345.246 275.079 346.522 267.678 346.522ZM276.44 253.206C280.268 253.014 283.692 252.61 283.692 252.61C287.116 252.206 286.711 247.166 283.288 247.358C283.288 247.358 272.973 248.145 266.36 248.145C260.107 248.145 249.623 247.358 249.623 247.358C246.199 247.166 245.795 252.419 249.219 252.61C249.219 252.61 252.452 253.014 255.875 253.206L265.764 280.342L251.856 322.023L228.697 253.185C232.525 252.993 235.949 252.589 235.949 252.589C239.373 252.185 238.969 247.145 235.545 247.336C235.545 247.336 225.231 248.123 218.617 248.123C217.426 248.123 216.001 248.102 214.491 248.038C225.869 230.791 245.37 219.393 267.572 219.393C284.096 219.393 299.173 225.709 310.487 236.065C310.211 236.044 309.955 236.001 309.679 236.001C303.427 236.001 299.025 241.446 299.025 247.273C299.025 252.525 302.044 256.949 305.277 262.159C307.701 266.37 310.53 271.835 310.53 279.682C310.53 285.126 308.467 291.421 305.702 300.225L299.386 321.407L276.44 253.206ZM299.62 337.888L319.036 281.788C322.651 272.707 323.864 265.476 323.864 259.012C323.864 256.694 323.715 254.524 323.417 252.483C328.372 261.563 331.2 271.92 331.2 282.979C331.222 306.435 318.526 326.893 299.62 337.888Z" fill="url(#paint17_linear)"/>
<defs>
<linearGradient id="paint0_linear" x1="483.381" y1="314.756" x2="394.472" y2="305.467" gradientUnits="userSpaceOnUse">
<stop offset="0.003597" stop-color="#26264F"/>
<stop offset="1" stop-color="#444B8C"/>
</linearGradient>
<linearGradient id="paint1_linear" x1="293.855" y1="586.377" x2="275.017" y2="559.394" gradientUnits="userSpaceOnUse">
<stop stop-color="#444B8C"/>
<stop offset="0.9964" stop-color="#26264F"/>
</linearGradient>
<linearGradient id="paint2_linear" x1="236.831" y1="579.46" x2="265.661" y2="422.955" gradientUnits="userSpaceOnUse">
<stop stop-color="#444B8C"/>
<stop offset="0.9964" stop-color="#26264F"/>
</linearGradient>
<linearGradient id="paint3_linear" x1="165.712" y1="147.419" x2="21.4392" y2="-58.492" gradientUnits="userSpaceOnUse">
<stop stop-color="#444B8C"/>
<stop offset="0.9964" stop-color="#26264F"/>
</linearGradient>
<linearGradient id="paint4_linear" x1="228.374" y1="171.868" x2="408.841" y2="745.055" gradientUnits="userSpaceOnUse">
<stop stop-color="#444B8C"/>
<stop offset="0.9964" stop-color="#26264F"/>
</linearGradient>
<linearGradient id="paint5_linear" x1="218.592" y1="206.954" x2="387.777" y2="555.809" gradientUnits="userSpaceOnUse">
<stop offset="0.00359712" stop-color="#E38DDD"/>
<stop offset="1" stop-color="#9571F6"/>
</linearGradient>
<linearGradient id="paint6_linear" x1="263.269" y1="165.479" x2="273.252" y2="248.117" gradientUnits="userSpaceOnUse">
<stop stop-color="#FF9085"/>
<stop offset="1" stop-color="#FB6FBB"/>
</linearGradient>
<linearGradient id="paint7_linear" x1="504.062" y1="441.907" x2="371.052" y2="441.907" gradientUnits="userSpaceOnUse">
<stop stop-color="#FFC444"/>
<stop offset="0.9964" stop-color="#F36F56"/>
</linearGradient>
<linearGradient id="paint8_linear" x1="451.942" y1="428.977" x2="491.025" y2="533.883" gradientUnits="userSpaceOnUse">
<stop stop-color="#AA80F9"/>
<stop offset="0.9964" stop-color="#6165D7"/>
</linearGradient>
<linearGradient id="paint9_linear" x1="476.725" y1="483.641" x2="354.017" y2="488.209" gradientUnits="userSpaceOnUse">
<stop stop-color="#444B8C"/>
<stop offset="0.9964" stop-color="#26264F"/>
</linearGradient>
<linearGradient id="paint10_linear" x1="424.634" y1="515.032" x2="405.93" y2="468.607" gradientUnits="userSpaceOnUse">
<stop stop-color="#444B8C"/>
<stop offset="0.9964" stop-color="#26264F"/>
</linearGradient>
<linearGradient id="paint11_linear" x1="442.442" y1="448.582" x2="378.58" y2="355.926" gradientUnits="userSpaceOnUse">
<stop stop-color="#FF9085"/>
<stop offset="1" stop-color="#FB6FBB"/>
</linearGradient>
<linearGradient id="paint12_linear" x1="415.826" y1="384.118" x2="530.498" y2="662.37" gradientUnits="userSpaceOnUse">
<stop stop-color="#FFC444"/>
<stop offset="0.9964" stop-color="#F36F56"/>
</linearGradient>
<linearGradient id="paint13_linear" x1="439.501" y1="448.02" x2="387.401" y2="556.43" gradientUnits="userSpaceOnUse">
<stop offset="0.00359712" stop-color="#E38DDD"/>
<stop offset="1" stop-color="#9571F6"/>
</linearGradient>
<linearGradient id="paint14_linear" x1="418.169" y1="412.218" x2="358.198" y2="537.006" gradientUnits="userSpaceOnUse">
<stop offset="0.00359712" stop-color="#E38DDD"/>
<stop offset="1" stop-color="#9571F6"/>
</linearGradient>
<linearGradient id="paint15_linear" x1="433.864" y1="476.942" x2="392.355" y2="563.313" gradientUnits="userSpaceOnUse">
<stop offset="0.00359712" stop-color="#E38DDD"/>
<stop offset="1" stop-color="#9571F6"/>
</linearGradient>
<linearGradient id="paint16_linear" x1="421.764" y1="528.321" x2="394.085" y2="585.915" gradientUnits="userSpaceOnUse">
<stop offset="0.00359712" stop-color="#E38DDD"/>
<stop offset="1" stop-color="#9571F6"/>
</linearGradient>
<linearGradient id="paint17_linear" x1="196.987" y1="282.979" x2="338.35" y2="282.979" gradientUnits="userSpaceOnUse">
<stop stop-color="#FF9085"/>
<stop offset="1" stop-color="#FB6FBB"/>
</linearGradient>
</defs>
</svg>
